<?xml version="1.0" encoding="UTF-8"?>
<svg version="1.1" xmlns="http://www.w3.org/2000/svg" width="1112" height="898">
<path d="M0 0 C1.04878578 -0.00262848 1.04878578 -0.00262848 2.11875916 -0.00531006 C4.44125821 -0.00972872 6.76368174 -0.00679024 9.08618164 -0.00341797 C10.6942191 -0.00409108 12.30225647 -0.00506117 13.91029358 -0.00631714 C17.28558315 -0.00779419 20.66084631 -0.0056396 24.03613281 -0.00097656 C28.36860479 0.00471617 32.70101477 0.00144467 37.03348446 -0.00454903 C40.35596689 -0.00815834 43.67843457 -0.00701426 47.00091743 -0.00442123 C48.59855723 -0.00375275 50.19619835 -0.00457765 51.79383659 -0.00690079 C54.02535436 -0.00943286 56.25677104 -0.00557866 58.48828125 0 C59.75989609 0.00079559 61.03151093 0.00159119 62.34165955 0.00241089 C65.30883789 0.12939453 65.30883789 0.12939453 67.30883789 1.12939453 C68.84783097 1.28386596 70.39037065 1.40404527 71.93383789 1.50439453 C75.31403089 1.80378305 78.07215391 2.28274138 81.18383789 3.62939453 C84.61366975 5.07646355 87.65914594 5.40804644 91.37133789 5.62939453 C94.93726873 5.84415574 97.82353505 6.08947922 101.05883789 7.62939453 C103.86226154 8.92328237 105.41467143 9.38564848 108.37133789 9.69189453 C111.97874279 10.0927173 114.92628985 10.86093902 118.30883789 12.12939453 C118.30883789 12.78939453 118.30883789 13.44939453 118.30883789 14.12939453 C119.11321289 14.10876953 119.91758789 14.08814453 120.74633789 14.06689453 C123.30883789 14.12939453 123.30883789 14.12939453 124.30883789 15.12939453 C126.26008094 15.36089794 128.21152542 15.5909335 130.16430664 15.80908203 C133.01351939 16.23464751 135.61773955 17.12023265 138.30883789 18.12939453 C138.30883789 18.78939453 138.30883789 19.44939453 138.30883789 20.12939453 C139.62883789 20.12939453 140.94883789 20.12939453 142.30883789 20.12939453 C142.30883789 20.78939453 142.30883789 21.44939453 142.30883789 22.12939453 C143.39165039 22.03658203 143.39165039 22.03658203 144.49633789 21.94189453 C147.922327 22.17029381 149.41325752 23.31123942 152.30883789 25.12939453 C154.94825462 26.22258579 157.61585187 27.17087408 160.30883789 28.12939453 C160.30883789 28.78939453 160.30883789 29.44939453 160.30883789 30.12939453 C161.62883789 30.12939453 162.94883789 30.12939453 164.30883789 30.12939453 C164.30883789 30.78939453 164.30883789 31.44939453 164.30883789 32.12939453 C165.21633789 32.08814453 166.12383789 32.04689453 167.05883789 32.00439453 C170.18704249 32.12471009 171.69497795 32.52086533 174.30883789 34.12939453 C174.30883789 34.78939453 174.30883789 35.44939453 174.30883789 36.12939453 C176.28883789 36.78939453 178.26883789 37.44939453 180.30883789 38.12939453 C180.30883789 38.78939453 180.30883789 39.44939453 180.30883789 40.12939453 C181.62883789 40.12939453 182.94883789 40.12939453 184.30883789 40.12939453 C184.30883789 40.78939453 184.30883789 41.44939453 184.30883789 42.12939453 C184.92758789 42.27376953 185.54633789 42.41814453 186.18383789 42.56689453 C188.30883789 43.12939453 188.30883789 43.12939453 190.30883789 44.12939453 C190.30883789 44.78939453 190.30883789 45.44939453 190.30883789 46.12939453 C190.88633789 46.27376953 191.46383789 46.41814453 192.05883789 46.56689453 C194.14217122 47.08772786 196.22550456 47.6085612 198.30883789 48.12939453 C198.30883789 48.78939453 198.30883789 49.44939453 198.30883789 50.12939453 C199.07196289 50.41814453 199.83508789 50.70689453 200.62133789 51.00439453 C203.30883789 52.12939453 203.30883789 52.12939453 206.30883789 54.12939453 C206.30883789 54.78939453 206.30883789 55.44939453 206.30883789 56.12939453 C206.96883789 56.12939453 207.62883789 56.12939453 208.30883789 56.12939453 C208.30883789 56.78939453 208.30883789 57.44939453 208.30883789 58.12939453 C208.92758789 58.27376953 209.54633789 58.41814453 210.18383789 58.56689453 C212.30883789 59.12939453 212.30883789 59.12939453 214.30883789 60.12939453 C214.30883789 60.78939453 214.30883789 61.44939453 214.30883789 62.12939453 C215.25758789 62.37689453 216.20633789 62.62439453 217.18383789 62.87939453 C220.30883789 64.12939453 220.30883789 64.12939453 221.68383789 66.25439453 C221.99321289 67.18251953 221.99321289 67.18251953 222.30883789 68.12939453 C222.96883789 68.12939453 223.62883789 68.12939453 224.30883789 68.12939453 C224.30883789 68.78939453 224.30883789 69.44939453 224.30883789 70.12939453 C225.62883789 70.78939453 226.94883789 71.44939453 228.30883789 72.12939453 C228.30883789 72.78939453 228.30883789 73.44939453 228.30883789 74.12939453 C228.92758789 74.27376953 229.54633789 74.41814453 230.18383789 74.56689453 C232.30883789 75.12939453 232.30883789 75.12939453 234.30883789 76.12939453 C234.30883789 76.78939453 234.30883789 77.44939453 234.30883789 78.12939453 C235.62883789 78.78939453 236.94883789 79.44939453 238.30883789 80.12939453 C238.30883789 80.78939453 238.30883789 81.44939453 238.30883789 82.12939453 C238.96883789 82.12939453 239.62883789 82.12939453 240.30883789 82.12939453 C240.30883789 82.78939453 240.30883789 83.44939453 240.30883789 84.12939453 C240.96883789 84.12939453 241.62883789 84.12939453 242.30883789 84.12939453 C242.30883789 84.78939453 242.30883789 85.44939453 242.30883789 86.12939453 C242.96883789 86.12939453 243.62883789 86.12939453 244.30883789 86.12939453 C244.30883789 86.78939453 244.30883789 87.44939453 244.30883789 88.12939453 C244.96883789 88.12939453 245.62883789 88.12939453 246.30883789 88.12939453 C246.30883789 88.78939453 246.30883789 89.44939453 246.30883789 90.12939453 C247.07196289 90.39751953 247.83508789 90.66564453 248.62133789 90.94189453 C251.21367768 92.087347 252.60959326 92.89354634 254.30883789 95.12939453 C254.30883789 96.11939453 254.30883789 97.10939453 254.30883789 98.12939453 C254.96883789 98.12939453 255.62883789 98.12939453 256.30883789 98.12939453 C256.30883789 98.78939453 256.30883789 99.44939453 256.30883789 100.12939453 C256.96883789 100.12939453 257.62883789 100.12939453 258.30883789 100.12939453 C260.30883789 103.12939453 260.30883789 103.12939453 260.30883789 106.12939453 C260.90438477 106.22865234 261.49993164 106.32791016 262.11352539 106.43017578 C265.98519469 107.66332312 268.05921001 110.87405066 270.30883789 114.12939453 C271.68383789 117.56689453 271.68383789 117.56689453 272.30883789 120.12939453 C272.96883789 120.12939453 273.62883789 120.12939453 274.30883789 120.12939453 C274.30883789 120.78939453 274.30883789 121.44939453 274.30883789 122.12939453 C274.96883789 122.12939453 275.62883789 122.12939453 276.30883789 122.12939453 C276.30883789 122.78939453 276.30883789 123.44939453 276.30883789 124.12939453 C276.96883789 124.12939453 277.62883789 124.12939453 278.30883789 124.12939453 C280.30883789 127.12939453 280.30883789 127.12939453 280.30883789 130.12939453 C280.96883789 130.12939453 281.62883789 130.12939453 282.30883789 130.12939453 C282.30883789 130.78939453 282.30883789 131.44939453 282.30883789 132.12939453 C282.96883789 132.12939453 283.62883789 132.12939453 284.30883789 132.12939453 C287.18383789 138.75439453 287.18383789 138.75439453 288.30883789 142.12939453 C288.96883789 142.12939453 289.62883789 142.12939453 290.30883789 142.12939453 C290.30883789 143.44939453 290.30883789 144.76939453 290.30883789 146.12939453 C290.96883789 146.12939453 291.62883789 146.12939453 292.30883789 146.12939453 C293.81665039 147.99267578 293.81665039 147.99267578 295.43383789 150.44189453 C295.97266602 151.24240234 296.51149414 152.04291016 297.06665039 152.86767578 C298.30883789 155.12939453 298.30883789 155.12939453 298.30883789 158.12939453 C298.96883789 158.12939453 299.62883789 158.12939453 300.30883789 158.12939453 C301.62510481 161.74912855 302.30883789 164.22506584 302.30883789 168.12939453 C302.96883789 168.12939453 303.62883789 168.12939453 304.30883789 168.12939453 C306.46078159 171.35731008 306.50970232 172.41340262 306.30883789 176.12939453 C306.96883789 176.12939453 307.62883789 176.12939453 308.30883789 176.12939453 C308.30883789 177.44939453 308.30883789 178.76939453 308.30883789 180.12939453 C308.96883789 180.12939453 309.62883789 180.12939453 310.30883789 180.12939453 C310.8328418 181.41136719 310.8328418 181.41136719 311.36743164 182.71923828 C311.8224707 183.82396484 312.27750977 184.92869141 312.74633789 186.06689453 C313.19879883 187.16904297 313.65125977 188.27119141 314.11743164 189.40673828 C315.05308397 191.9950837 315.05308397 191.9950837 316.30883789 193.12939453 C316.64217122 195.46272786 316.97550456 197.7960612 317.30883789 200.12939453 C317.63883789 200.45939453 317.96883789 200.78939453 318.30883789 201.12939453 C318.34947621 202.79556568 318.35155889 204.46327548 318.30883789 206.12939453 C318.96883789 206.12939453 319.62883789 206.12939453 320.30883789 206.12939453 C322.54711426 211.40533169 324.30883789 216.35950718 324.30883789 222.12939453 C324.96883789 222.12939453 325.62883789 222.12939453 326.30883789 222.12939453 C327.8269118 226.88602612 328.64938057 231.33184721 329.06274414 236.30908203 C329.12393847 238.14649442 329.12393847 238.14649442 330.30883789 239.12939453 C330.6298154 241.44756542 330.82104745 243.7671881 331.02758789 246.09814453 C331.09949626 248.12120046 331.09949626 248.12120046 332.30883789 249.12939453 C332.45269893 250.45825526 332.53560077 251.7938804 332.59008789 253.12939453 C332.6274707 253.93376953 332.66485352 254.73814453 332.70336914 255.56689453 C332.77368164 257.27522786 332.84399414 258.9835612 332.91430664 260.69189453 C332.95168945 261.49626953 332.98907227 262.30064453 333.02758789 263.12939453 C333.05788086 263.87189453 333.08817383 264.61439453 333.11938477 265.37939453 C333.12676202 267.15628308 333.12676202 267.15628308 334.30883789 268.12939453 C334.63330126 271.22982226 334.8221823 274.33146703 335.02758789 277.44189453 C335.01491588 280.04536205 335.01491588 280.04536205 336.30883789 281.12939453 C336.40752298 282.78130849 336.43682626 284.4374267 336.43823242 286.09228516 C336.44296066 287.6789801 336.44296066 287.6789801 336.44778442 289.29772949 C336.44576019 290.44874146 336.44373596 291.59975342 336.44165039 292.78564453 C336.44260712 293.95824829 336.44356384 295.13085205 336.44454956 296.33898926 C336.44523159 298.82397515 336.44337573 301.30896282 336.43920898 303.79394531 C336.43386108 307.61283341 336.43915325 311.43160388 336.44555664 315.25048828 C336.44489586 317.65804063 336.44361471 320.0655929 336.44165039 322.47314453 C336.44367462 323.62415649 336.44569885 324.77516846 336.44778442 325.96105957 C336.44463226 327.0188562 336.4414801 328.07665283 336.43823242 329.16650391 C336.43703903 330.57095764 336.43703903 330.57095764 336.43582153 332.00378418 C336.30883789 334.12939453 336.30883789 334.12939453 335.30883789 335.12939453 C335.09995082 337.12542659 334.94108312 339.12682394 334.80883789 341.12939453 C334.419949 347.01828342 334.419949 347.01828342 333.30883789 348.12939453 C333.16497685 349.45825526 333.08207501 350.7938804 333.02758789 352.12939453 C332.97151367 353.33595703 332.97151367 353.33595703 332.91430664 354.56689453 C332.87950195 355.41251953 332.84469727 356.25814453 332.80883789 357.12939453 C332.7402328 358.79624424 332.66753566 360.46293227 332.59008789 362.12939453 C332.54464844 363.24314453 332.54464844 363.24314453 332.49829102 364.37939453 C332.30883789 366.12939453 332.30883789 366.12939453 331.30883789 367.12939453 C331.10108228 368.79143941 330.94165534 370.45968944 330.80883789 372.12939453 C330.419949 377.01828342 330.419949 377.01828342 329.30883789 378.12939453 C329.16446289 379.16064453 329.02008789 380.19189453 328.87133789 381.25439453 C328.31704619 385.07284845 327.43469777 388.45158559 326.30883789 392.12939453 C325.64883789 392.12939453 324.98883789 392.12939453 324.30883789 392.12939453 C324.30883789 394.10939453 324.30883789 396.08939453 324.30883789 398.12939453 C323.64883789 398.12939453 322.98883789 398.12939453 322.30883789 398.12939453 C322.37071289 399.42876953 322.37071289 399.42876953 322.43383789 400.75439453 C322.30426068 404.25297921 321.54864133 406.8749105 320.30883789 410.12939453 C319.64883789 410.12939453 318.98883789 410.12939453 318.30883789 410.12939453 C318.30883789 411.44939453 318.30883789 412.76939453 318.30883789 414.12939453 C317.64883789 414.12939453 316.98883789 414.12939453 316.30883789 414.12939453 C316.30883789 417.42939453 316.30883789 420.72939453 316.30883789 424.12939453 C315.64883789 424.12939453 314.98883789 424.12939453 314.30883789 424.12939453 C314.17606445 424.70173828 314.04329102 425.27408203 313.90649414 425.86376953 C313.31503472 428.10590328 312.57594935 430.21519072 311.74633789 432.37939453 C311.3422168 433.43900391 311.3422168 433.43900391 310.92993164 434.52001953 C310.7249707 435.05111328 310.52000977 435.58220703 310.30883789 436.12939453 C309.64883789 436.12939453 308.98883789 436.12939453 308.30883789 436.12939453 C307.64883789 438.76939453 306.98883789 441.40939453 306.30883789 444.12939453 C305.64883789 444.12939453 304.98883789 444.12939453 304.30883789 444.12939453 C304.06133789 445.09876953 303.81383789 446.06814453 303.55883789 447.06689453 C302.27029067 451.62349631 300.30885311 455.84780856 298.30883789 460.12939453 C297.64883789 460.12939453 296.98883789 460.12939453 296.30883789 460.12939453 C296.12321289 461.02658203 296.12321289 461.02658203 295.93383789 461.94189453 C295.30883789 464.12939453 295.30883789 464.12939453 293.30883789 467.12939453 C293.63883789 468.11939453 293.96883789 469.10939453 294.30883789 470.12939453 C295.25758789 470.41814453 296.20633789 470.70689453 297.18383789 471.00439453 C300.99446811 472.37622141 301.50895053 473.61532874 303.30883789 477.12939453 C303.86571289 477.68626953 304.42258789 478.24314453 304.99633789 478.81689453 C305.64602539 479.46658203 305.64602539 479.46658203 306.30883789 480.12939453 C306.30883789 480.78939453 306.30883789 481.44939453 306.30883789 482.12939453 C307.11321289 482.50064453 307.11321289 482.50064453 307.93383789 482.87939453 C310.92333559 484.45281437 313.63131478 486.0603994 316.30883789 488.12939453 C316.30883789 489.44939453 316.30883789 490.76939453 316.30883789 492.12939453 C316.86571289 492.19126953 317.42258789 492.25314453 317.99633789 492.31689453 C321.27373398 493.46841208 322.92841469 495.63285313 325.30883789 498.12939453 C326.23696289 498.85126953 327.16508789 499.57314453 328.12133789 500.31689453 C328.84321289 500.91501953 329.56508789 501.51314453 330.30883789 502.12939453 C330.30883789 502.78939453 330.30883789 503.44939453 330.30883789 504.12939453 C330.96883789 504.12939453 331.62883789 504.12939453 332.30883789 504.12939453 C332.30883789 505.44939453 332.30883789 506.76939453 332.30883789 508.12939453 C333.62883789 508.12939453 334.94883789 508.12939453 336.30883789 508.12939453 C337.68973022 509.75687477 339.01097396 511.43496107 340.30883789 513.12939453 C342.39736721 515.00103811 344.53415961 516.79658449 346.69946289 518.57861328 C347.23055664 519.09037109 347.76165039 519.60212891 348.30883789 520.12939453 C348.30883789 520.78939453 348.30883789 521.44939453 348.30883789 522.12939453 C348.96883789 522.12939453 349.62883789 522.12939453 350.30883789 522.12939453 C350.30883789 522.78939453 350.30883789 523.44939453 350.30883789 524.12939453 C350.96883789 524.12939453 351.62883789 524.12939453 352.30883789 524.12939453 C352.30883789 524.78939453 352.30883789 525.44939453 352.30883789 526.12939453 C352.96883789 526.12939453 353.62883789 526.12939453 354.30883789 526.12939453 C354.30883789 526.78939453 354.30883789 527.44939453 354.30883789 528.12939453 C354.96883789 528.12939453 355.62883789 528.12939453 356.30883789 528.12939453 C356.30883789 528.78939453 356.30883789 529.44939453 356.30883789 530.12939453 C356.96883789 530.12939453 357.62883789 530.12939453 358.30883789 530.12939453 C358.30883789 530.78939453 358.30883789 531.44939453 358.30883789 532.12939453 C358.96883789 532.12939453 359.62883789 532.12939453 360.30883789 532.12939453 C360.30883789 532.78939453 360.30883789 533.44939453 360.30883789 534.12939453 C361.62883789 534.78939453 362.94883789 535.44939453 364.30883789 536.12939453 C364.30883789 536.78939453 364.30883789 537.44939453 364.30883789 538.12939453 C364.96883789 538.12939453 365.62883789 538.12939453 366.30883789 538.12939453 C366.30883789 538.78939453 366.30883789 539.44939453 366.30883789 540.12939453 C367.62883789 540.78939453 368.94883789 541.44939453 370.30883789 542.12939453 C370.30883789 542.78939453 370.30883789 543.44939453 370.30883789 544.12939453 C371.62883789 544.78939453 372.94883789 545.44939453 374.30883789 546.12939453 C374.30883789 546.78939453 374.30883789 547.44939453 374.30883789 548.12939453 C374.96883789 548.12939453 375.62883789 548.12939453 376.30883789 548.12939453 C376.30883789 548.78939453 376.30883789 549.44939453 376.30883789 550.12939453 C377.62883789 550.78939453 378.94883789 551.44939453 380.30883789 552.12939453 C380.30883789 552.78939453 380.30883789 553.44939453 380.30883789 554.12939453 C380.88118164 554.39751953 381.45352539 554.66564453 382.04321289 554.94189453 C384.38768423 556.17072089 386.43288727 557.55461629 388.55883789 559.12939453 C389.61844727 559.90283203 389.61844727 559.90283203 390.69946289 560.69189453 C391.23055664 561.16626953 391.76165039 561.64064453 392.30883789 562.12939453 C392.30883789 562.78939453 392.30883789 563.44939453 392.30883789 564.12939453 C392.96883789 564.12939453 393.62883789 564.12939453 394.30883789 564.12939453 C395.66270725 565.77942281 396.99561932 567.44683323 398.30883789 569.12939453 C398.96883789 569.45939453 399.62883789 569.78939453 400.30883789 570.12939453 C400.30883789 570.78939453 400.30883789 571.44939453 400.30883789 572.12939453 C400.96883789 572.12939453 401.62883789 572.12939453 402.30883789 572.12939453 C402.30883789 572.78939453 402.30883789 573.44939453 402.30883789 574.12939453 C402.96883789 574.12939453 403.62883789 574.12939453 404.30883789 574.12939453 C404.30883789 574.78939453 404.30883789 575.44939453 404.30883789 576.12939453 C404.96883789 576.12939453 405.62883789 576.12939453 406.30883789 576.12939453 C406.30883789 576.78939453 406.30883789 577.44939453 406.30883789 578.12939453 C406.96883789 578.12939453 407.62883789 578.12939453 408.30883789 578.12939453 C408.30883789 578.78939453 408.30883789 579.44939453 408.30883789 580.12939453 C408.96883789 580.12939453 409.62883789 580.12939453 410.30883789 580.12939453 C410.30883789 580.78939453 410.30883789 581.44939453 410.30883789 582.12939453 C410.96883789 582.12939453 411.62883789 582.12939453 412.30883789 582.12939453 C412.30883789 582.78939453 412.30883789 583.44939453 412.30883789 584.12939453 C412.96883789 584.12939453 413.62883789 584.12939453 414.30883789 584.12939453 C414.30883789 584.78939453 414.30883789 585.44939453 414.30883789 586.12939453 C414.96883789 586.12939453 415.62883789 586.12939453 416.30883789 586.12939453 C416.30883789 586.78939453 416.30883789 587.44939453 416.30883789 588.12939453 C416.96883789 588.12939453 417.62883789 588.12939453 418.30883789 588.12939453 C418.30883789 588.78939453 418.30883789 589.44939453 418.30883789 590.12939453 C418.96883789 590.12939453 419.62883789 590.12939453 420.30883789 590.12939453 C420.30883789 590.78939453 420.30883789 591.44939453 420.30883789 592.12939453 C420.96883789 592.12939453 421.62883789 592.12939453 422.30883789 592.12939453 C422.30883789 592.78939453 422.30883789 593.44939453 422.30883789 594.12939453 C422.96883789 594.12939453 423.62883789 594.12939453 424.30883789 594.12939453 C424.30883789 594.78939453 424.30883789 595.44939453 424.30883789 596.12939453 C424.96883789 596.12939453 425.62883789 596.12939453 426.30883789 596.12939453 C426.30883789 596.78939453 426.30883789 597.44939453 426.30883789 598.12939453 C426.96883789 598.12939453 427.62883789 598.12939453 428.30883789 598.12939453 C428.30883789 598.78939453 428.30883789 599.44939453 428.30883789 600.12939453 C428.96883789 600.12939453 429.62883789 600.12939453 430.30883789 600.12939453 C430.30883789 600.78939453 430.30883789 601.44939453 430.30883789 602.12939453 C430.88762695 602.39107422 431.46641602 602.65275391 432.06274414 602.92236328 C439.91174332 607.14034719 446.36484218 614.82064311 451.87915039 621.67626953 C453.35615488 623.39765038 453.35615488 623.39765038 456.30883789 624.12939453 C456.30883789 624.78939453 456.30883789 625.44939453 456.30883789 626.12939453 C456.96883789 626.12939453 457.62883789 626.12939453 458.30883789 626.12939453 C459.74633789 627.62548828 459.74633789 627.62548828 461.30883789 629.56689453 C463.45408833 632.28127691 463.45408833 632.28127691 466.30883789 634.12939453 C466.30883789 634.78939453 466.30883789 635.44939453 466.30883789 636.12939453 C466.96883789 636.12939453 467.62883789 636.12939453 468.30883789 636.12939453 C468.63883789 637.11939453 468.96883789 638.10939453 469.30883789 639.12939453 C470.29883789 639.45939453 471.28883789 639.78939453 472.30883789 640.12939453 C472.30883789 640.78939453 472.30883789 641.44939453 472.30883789 642.12939453 C472.96883789 642.12939453 473.62883789 642.12939453 474.30883789 642.12939453 C474.30883789 642.78939453 474.30883789 643.44939453 474.30883789 644.12939453 C474.96883789 644.12939453 475.62883789 644.12939453 476.30883789 644.12939453 C476.30883789 644.78939453 476.30883789 645.44939453 476.30883789 646.12939453 C477.62883789 646.78939453 478.94883789 647.44939453 480.30883789 648.12939453 C480.30883789 648.78939453 480.30883789 649.44939453 480.30883789 650.12939453 C481.62883789 650.78939453 482.94883789 651.44939453 484.30883789 652.12939453 C484.30883789 652.78939453 484.30883789 653.44939453 484.30883789 654.12939453 C484.96883789 654.12939453 485.62883789 654.12939453 486.30883789 654.12939453 C486.30883789 654.78939453 486.30883789 655.44939453 486.30883789 656.12939453 C487.62883789 656.78939453 488.94883789 657.44939453 490.30883789 658.12939453 C490.30883789 658.78939453 490.30883789 659.44939453 490.30883789 660.12939453 C490.92758789 660.37689453 491.54633789 660.62439453 492.18383789 660.87939453 C494.30883789 662.12939453 494.30883789 662.12939453 495.30883789 664.19189453 C496.13842009 666.34219733 496.13842009 666.34219733 498.43383789 666.87939453 C499.05258789 666.96189453 499.67133789 667.04439453 500.30883789 667.12939453 C500.30883789 668.11939453 500.30883789 669.10939453 500.30883789 670.12939453 C500.96883789 670.12939453 501.62883789 670.12939453 502.30883789 670.12939453 C502.30883789 670.78939453 502.30883789 671.44939453 502.30883789 672.12939453 C502.96883789 672.12939453 503.62883789 672.12939453 504.30883789 672.12939453 C508.30883789 677.54115924 508.30883789 677.54115924 508.30883789 680.12939453 C508.96883789 680.12939453 509.62883789 680.12939453 510.30883789 680.12939453 C510.30883789 681.44939453 510.30883789 682.76939453 510.30883789 684.12939453 C510.96883789 684.12939453 511.62883789 684.12939453 512.30883789 684.12939453 C512.30883789 684.78939453 512.30883789 685.44939453 512.30883789 686.12939453 C512.96883789 686.12939453 513.62883789 686.12939453 514.30883789 686.12939453 C516.4587925 689.89397369 516.65441639 693.04096448 516.86743164 697.30126953 C517.22024887 700.32535505 517.22024887 700.32535505 518.82446289 703.67236328 C521.00358148 709.22503187 520.70805099 714.80580921 520.62133789 720.69189453 C520.62456055 721.78953125 520.6277832 722.88716797 520.63110352 724.01806641 C520.59299937 729.76486387 520.26053912 734.70973016 518.30883789 740.12939453 C517.64883789 740.12939453 516.98883789 740.12939453 516.30883789 740.12939453 C516.34364258 741.14259766 516.34364258 741.14259766 516.37915039 742.17626953 C516.4062207 743.51431641 516.4062207 743.51431641 516.43383789 744.87939453 C516.45704102 745.76111328 516.48024414 746.64283203 516.50415039 747.55126953 C516.30023291 750.24298033 515.6743551 751.82844427 514.30883789 754.12939453 C513.64883789 754.12939453 512.98883789 754.12939453 512.30883789 754.12939453 C512.30883789 755.44939453 512.30883789 756.76939453 512.30883789 758.12939453 C511.64883789 758.12939453 510.98883789 758.12939453 510.30883789 758.12939453 C510.30883789 759.44939453 510.30883789 760.76939453 510.30883789 762.12939453 C509.64883789 762.12939453 508.98883789 762.12939453 508.30883789 762.12939453 C508.30883789 762.78939453 508.30883789 763.44939453 508.30883789 764.12939453 C507.64883789 764.12939453 506.98883789 764.12939453 506.30883789 764.12939453 C506.02008789 764.70689453 505.73133789 765.28439453 505.43383789 765.87939453 C503.87133789 769.00439453 503.87133789 769.00439453 502.30883789 772.12939453 C501.64883789 772.12939453 500.98883789 772.12939453 500.30883789 772.12939453 C499.64883789 773.44939453 498.98883789 774.76939453 498.30883789 776.12939453 C497.64883789 776.12939453 496.98883789 776.12939453 496.30883789 776.12939453 C496.30883789 776.78939453 496.30883789 777.44939453 496.30883789 778.12939453 C495.64883789 778.12939453 494.98883789 778.12939453 494.30883789 778.12939453 C494.30883789 778.78939453 494.30883789 779.44939453 494.30883789 780.12939453 C492.98883789 780.12939453 491.66883789 780.12939453 490.30883789 780.12939453 C490.30883789 780.78939453 490.30883789 781.44939453 490.30883789 782.12939453 C489.64883789 782.12939453 488.98883789 782.12939453 488.30883789 782.12939453 C488.30883789 782.78939453 488.30883789 783.44939453 488.30883789 784.12939453 C482.82526148 788.89997637 477.39985866 791.00383568 470.30883789 792.12939453 C470.30883789 792.78939453 470.30883789 793.44939453 470.30883789 794.12939453 C465.55016101 795.99965762 461.2222787 796.44987417 456.16430664 796.46533203 C455.39508377 796.47198883 454.6258609 796.47864563 453.83332825 796.48550415 C452.21215184 796.4955869 450.59093429 796.50032253 448.96972656 796.5 C446.51369371 796.50436369 444.05947426 796.5407005 441.60375977 796.57861328 C433.32239142 796.63784307 426.5910849 796.52982223 419.30883789 792.12939453 C418.4387207 791.75814453 417.56860352 791.38689453 416.67211914 791.00439453 C412.20244408 789.09733317 408.17062882 787.10000294 404.30883789 784.12939453 C404.30883789 783.46939453 404.30883789 782.80939453 404.30883789 782.12939453 C403.64883789 782.12939453 402.98883789 782.12939453 402.30883789 782.12939453 C402.30883789 781.46939453 402.30883789 780.80939453 402.30883789 780.12939453 C400.98883789 780.12939453 399.66883789 780.12939453 398.30883789 780.12939453 C398.30883789 779.46939453 398.30883789 778.80939453 398.30883789 778.12939453 C397.75196289 777.90251953 397.19508789 777.67564453 396.62133789 777.44189453 C392.62444903 775.17339004 389.7691714 772.51039507 388.30883789 768.12939453 C387.64883789 768.12939453 386.98883789 768.12939453 386.30883789 768.12939453 C386.30883789 767.46939453 386.30883789 766.80939453 386.30883789 766.12939453 C385.62821289 765.92314453 384.94758789 765.71689453 384.24633789 765.50439453 C379.24237259 763.1621129 375.36549677 759.71438285 372.30883789 755.12939453 C372.30883789 754.13939453 372.30883789 753.14939453 372.30883789 752.12939453 C371.64883789 752.12939453 370.98883789 752.12939453 370.30883789 752.12939453 C370.30883789 751.46939453 370.30883789 750.80939453 370.30883789 750.12939453 C369.69008789 749.98501953 369.07133789 749.84064453 368.43383789 749.69189453 C366.30883789 749.12939453 366.30883789 749.12939453 364.30883789 748.12939453 C364.30883789 747.46939453 364.30883789 746.80939453 364.30883789 746.12939453 C363.64883789 746.12939453 362.98883789 746.12939453 362.30883789 746.12939453 C362.30883789 745.46939453 362.30883789 744.80939453 362.30883789 744.12939453 C361.64883789 744.12939453 360.98883789 744.12939453 360.30883789 744.12939453 C358.30883789 741.12939453 358.30883789 741.12939453 358.30883789 738.12939453 C357.64883789 738.12939453 356.98883789 738.12939453 356.30883789 738.12939453 C356.30883789 737.46939453 356.30883789 736.80939453 356.30883789 736.12939453 C354.98883789 736.12939453 353.66883789 736.12939453 352.30883789 736.12939453 C352.30883789 735.46939453 352.30883789 734.80939453 352.30883789 734.12939453 C351.64883789 734.12939453 350.98883789 734.12939453 350.30883789 734.12939453 C350.30883789 733.46939453 350.30883789 732.80939453 350.30883789 732.12939453 C349.64883789 732.12939453 348.98883789 732.12939453 348.30883789 732.12939453 C348.30883789 731.46939453 348.30883789 730.80939453 348.30883789 730.12939453 C347.64883789 730.12939453 346.98883789 730.12939453 346.30883789 730.12939453 C346.30883789 729.46939453 346.30883789 728.80939453 346.30883789 728.12939453 C345.64883789 728.12939453 344.98883789 728.12939453 344.30883789 728.12939453 C344.30883789 727.46939453 344.30883789 726.80939453 344.30883789 726.12939453 C343.64883789 726.12939453 342.98883789 726.12939453 342.30883789 726.12939453 C340.95496853 724.47936625 339.62205647 722.81195583 338.30883789 721.12939453 C337.64883789 720.79939453 336.98883789 720.46939453 336.30883789 720.12939453 C336.30883789 719.46939453 336.30883789 718.80939453 336.30883789 718.12939453 C335.64883789 718.12939453 334.98883789 718.12939453 334.30883789 718.12939453 C334.30883789 717.46939453 334.30883789 716.80939453 334.30883789 716.12939453 C332.98883789 715.79939453 331.66883789 715.46939453 330.30883789 715.12939453 C330.30883789 714.13939453 330.30883789 713.14939453 330.30883789 712.12939453 C329.64883789 712.12939453 328.98883789 712.12939453 328.30883789 712.12939453 C328.30883789 711.46939453 328.30883789 710.80939453 328.30883789 710.12939453 C327.64883789 710.12939453 326.98883789 710.12939453 326.30883789 710.12939453 C326.30883789 709.46939453 326.30883789 708.80939453 326.30883789 708.12939453 C325.64883789 708.12939453 324.98883789 708.12939453 324.30883789 708.12939453 C324.30883789 707.46939453 324.30883789 706.80939453 324.30883789 706.12939453 C323.69008789 705.88189453 323.07133789 705.63439453 322.43383789 705.37939453 C320.30883789 704.12939453 320.30883789 704.12939453 319.30883789 702.06689453 C318.47925569 699.91659174 318.47925569 699.91659174 316.18383789 699.37939453 C315.56508789 699.29689453 314.94633789 699.21439453 314.30883789 699.12939453 C314.30883789 698.13939453 314.30883789 697.14939453 314.30883789 696.12939453 C313.64883789 696.12939453 312.98883789 696.12939453 312.30883789 696.12939453 C312.30883789 695.46939453 312.30883789 694.80939453 312.30883789 694.12939453 C311.64883789 694.12939453 310.98883789 694.12939453 310.30883789 694.12939453 C310.30883789 693.46939453 310.30883789 692.80939453 310.30883789 692.12939453 C309.64883789 692.12939453 308.98883789 692.12939453 308.30883789 692.12939453 C308.30883789 691.46939453 308.30883789 690.80939453 308.30883789 690.12939453 C307.77258789 690.06751953 307.23633789 690.00564453 306.68383789 689.94189453 C303.15375814 688.73423567 300.95509041 686.71550494 298.30883789 684.12939453 C298.30883789 682.80939453 298.30883789 681.48939453 298.30883789 680.12939453 C297.69008789 679.88189453 297.07133789 679.63439453 296.43383789 679.37939453 C293.95815102 677.92310814 293.35758787 676.75126947 292.30883789 674.12939453 C290.98883789 674.12939453 289.66883789 674.12939453 288.30883789 674.12939453 C288.30883789 673.46939453 288.30883789 672.80939453 288.30883789 672.12939453 C287.64883789 672.12939453 286.98883789 672.12939453 286.30883789 672.12939453 C286.30883789 671.46939453 286.30883789 670.80939453 286.30883789 670.12939453 C285.64883789 670.12939453 284.98883789 670.12939453 284.30883789 670.12939453 C284.30883789 669.46939453 284.30883789 668.80939453 284.30883789 668.12939453 C283.64883789 668.12939453 282.98883789 668.12939453 282.30883789 668.12939453 C282.30883789 667.46939453 282.30883789 666.80939453 282.30883789 666.12939453 C281.64883789 666.12939453 280.98883789 666.12939453 280.30883789 666.12939453 C276.30883789 660.71762983 276.30883789 660.71762983 276.30883789 658.12939453 C274.98883789 658.12939453 273.66883789 658.12939453 272.30883789 658.12939453 C272.30883789 657.46939453 272.30883789 656.80939453 272.30883789 656.12939453 C271.64883789 656.12939453 270.98883789 656.12939453 270.30883789 656.12939453 C270.30883789 655.46939453 270.30883789 654.80939453 270.30883789 654.12939453 C269.64883789 654.12939453 268.98883789 654.12939453 268.30883789 654.12939453 C268.30883789 653.46939453 268.30883789 652.80939453 268.30883789 652.12939453 C267.64883789 652.12939453 266.98883789 652.12939453 266.30883789 652.12939453 C266.30883789 650.80939453 266.30883789 649.48939453 266.30883789 648.12939453 C265.73133789 648.02626953 265.15383789 647.92314453 264.55883789 647.81689453 C261.95222632 647.02042988 260.33530679 645.93874176 258.30883789 644.12939453 C258.30883789 643.46939453 258.30883789 642.80939453 258.30883789 642.12939453 C257.54571289 641.88189453 256.78258789 641.63439453 255.99633789 641.37939453 C253.04802844 640.00808781 251.95049257 638.89428663 250.30883789 636.12939453 C250.30883789 635.46939453 250.30883789 634.80939453 250.30883789 634.12939453 C249.64883789 634.12939453 248.98883789 634.12939453 248.30883789 634.12939453 C248.30883789 633.46939453 248.30883789 632.80939453 248.30883789 632.12939453 C247.64883789 632.12939453 246.98883789 632.12939453 246.30883789 632.12939453 C246.30883789 631.46939453 246.30883789 630.80939453 246.30883789 630.12939453 C245.64883789 630.12939453 244.98883789 630.12939453 244.30883789 630.12939453 C244.30883789 629.46939453 244.30883789 628.80939453 244.30883789 628.12939453 C243.58696289 627.90251953 242.86508789 627.67564453 242.12133789 627.44189453 C238.72426702 625.85659479 236.73388269 623.9701613 234.30883789 621.12939453 C234.30883789 620.13939453 234.30883789 619.14939453 234.30883789 618.12939453 C233.64883789 618.12939453 232.98883789 618.12939453 232.30883789 618.12939453 C232.30883789 617.46939453 232.30883789 616.80939453 232.30883789 616.12939453 C231.64883789 616.12939453 230.98883789 616.12939453 230.30883789 616.12939453 C230.30883789 615.46939453 230.30883789 614.80939453 230.30883789 614.12939453 C229.69008789 613.98501953 229.07133789 613.84064453 228.43383789 613.69189453 C226.30883789 613.12939453 226.30883789 613.12939453 224.30883789 612.12939453 C224.30883789 611.46939453 224.30883789 610.80939453 224.30883789 610.12939453 C223.64883789 610.12939453 222.98883789 610.12939453 222.30883789 610.12939453 C222.30883789 609.46939453 222.30883789 608.80939453 222.30883789 608.12939453 C221.64883789 608.12939453 220.98883789 608.12939453 220.30883789 608.12939453 C219.64883789 606.14939453 218.98883789 604.16939453 218.30883789 602.12939453 C217.64883789 602.12939453 216.98883789 602.12939453 216.30883789 602.12939453 C216.30883789 601.46939453 216.30883789 600.80939453 216.30883789 600.12939453 C215.64883789 600.12939453 214.98883789 600.12939453 214.30883789 600.12939453 C214.30883789 599.46939453 214.30883789 598.80939453 214.30883789 598.12939453 C212.98883789 598.12939453 211.66883789 598.12939453 210.30883789 598.12939453 C210.30883789 597.46939453 210.30883789 596.80939453 210.30883789 596.12939453 C209.64883789 596.12939453 208.98883789 596.12939453 208.30883789 596.12939453 C208.30883789 595.46939453 208.30883789 594.80939453 208.30883789 594.12939453 C207.71329102 593.87287109 207.11774414 593.61634766 206.50415039 593.35205078 C204.11187418 592.01969766 202.8815559 590.69570848 201.18383789 588.56689453 C199.09980155 585.91913788 199.09980155 585.91913788 196.30883789 584.12939453 C196.30883789 583.46939453 196.30883789 582.80939453 196.30883789 582.12939453 C195.73133789 581.86126953 195.15383789 581.59314453 194.55883789 581.31689453 C192.23520425 580.09053233 190.27059143 578.88096019 188.30883789 577.12939453 C188.30883789 576.13939453 188.30883789 575.14939453 188.30883789 574.12939453 C183.23202401 574.43400336 180.64620602 575.35960783 176.89477539 578.79345703 C171.54355613 583.30113434 165.06045904 584.94160933 158.30883789 586.12939453 C158.30883789 586.78939453 158.30883789 587.44939453 158.30883789 588.12939453 C156.98883789 588.12939453 155.66883789 588.12939453 154.30883789 588.12939453 C154.30883789 588.78939453 154.30883789 589.44939453 154.30883789 590.12939453 C152.32883789 590.12939453 150.34883789 590.12939453 148.30883789 590.12939453 C148.30883789 590.78939453 148.30883789 591.44939453 148.30883789 592.12939453 C142.72631869 595.45515065 138.81196998 596.59390397 132.30883789 596.12939453 C132.30883789 596.78939453 132.30883789 597.44939453 132.30883789 598.12939453 C128.18826329 600.12724888 124.85689424 600.30774968 120.30883789 600.12939453 C120.30883789 600.78939453 120.30883789 601.44939453 120.30883789 602.12939453 C119.52637695 602.33435547 118.74391602 602.53931641 117.93774414 602.75048828 C116.92583008 603.01990234 115.91391602 603.28931641 114.87133789 603.56689453 C113.35733398 603.96714844 113.35733398 603.96714844 111.81274414 604.37548828 C109.39131788 604.8891753 109.39131788 604.8891753 108.30883789 606.12939453 C107.11258789 606.25314453 105.91633789 606.37689453 104.68383789 606.50439453 C101.62239092 606.84093657 99.83402464 607.34042264 96.93383789 608.62939453 C92.97347034 610.26816731 89.68206164 610.64597126 85.44555664 610.91845703 C83.25803431 611.00597165 83.25803431 611.00597165 81.30883789 612.12939453 C78.08269365 612.39305218 74.86336413 612.57369793 71.63110352 612.73486328 C68.17629776 612.63132887 68.17629776 612.63132887 65.30883789 614.12939453 C63.07496583 614.22903373 60.8378993 614.25739248 58.60180664 614.25878906 C57.90100983 614.26054138 57.20021301 614.2622937 56.47817993 614.26409912 C54.1508744 614.26851719 51.82364425 614.26557982 49.49633789 614.26220703 C47.8859048 614.26288008 46.27547181 614.26385012 44.66503906 614.2651062 C41.28555334 614.26658311 37.90609399 614.26442884 34.52661133 614.25976562 C30.18507284 614.25406833 25.84359616 614.25734738 21.50205994 614.26333809 C18.17532888 614.26694389 14.84861259 614.26580503 11.5218811 614.2632103 C9.92062371 614.26254108 8.31936499 614.26336927 6.71810913 614.26568985 C4.48399278 614.26821669 2.24997789 614.26437538 0.01586914 614.25878906 C-1.89488403 614.25759567 -1.89488403 614.25759567 -3.84423828 614.25637817 C-6.69116211 614.12939453 -6.69116211 614.12939453 -7.69116211 613.12939453 C-10.17458012 612.91828934 -12.64072924 612.75344659 -15.12866211 612.62939453 C-22.42258626 612.26368246 -22.42258626 612.26368246 -24.69116211 611.12939453 C-26.06324826 610.97567534 -27.43917323 610.85514982 -28.81616211 610.75439453 C-32.81808819 610.35740346 -36.0301009 609.33929697 -39.72631836 607.81689453 C-41.75944667 607.10550172 -43.55114264 606.82963027 -45.69116211 606.62939453 C-50.72845569 606.1515485 -55.16859787 604.39067665 -59.69116211 602.12939453 C-59.69116211 601.46939453 -59.69116211 600.80939453 -59.69116211 600.12939453 C-61.48553711 600.19126953 -61.48553711 600.19126953 -63.31616211 600.25439453 C-67.11446164 600.26791161 -70.14091829 599.54949206 -73.69116211 598.12939453 C-73.69116211 597.46939453 -73.69116211 596.80939453 -73.69116211 596.12939453 C-75.42366211 596.25314453 -75.42366211 596.25314453 -77.19116211 596.37939453 C-82.08420832 596.41434486 -85.55965705 594.59071669 -89.69116211 592.12939453 C-89.69116211 591.46939453 -89.69116211 590.80939453 -89.69116211 590.12939453 C-90.41303711 590.17064453 -91.13491211 590.21189453 -91.87866211 590.25439453 C-94.8984558 590.12018148 -96.9605194 589.37768834 -99.69116211 588.12939453 C-99.69116211 587.46939453 -99.69116211 586.80939453 -99.69116211 586.12939453 C-100.26350586 585.99662109 -100.83584961 585.86384766 -101.42553711 585.72705078 C-103.66767086 585.13559136 -105.7769583 584.39650599 -107.94116211 583.56689453 C-108.64756836 583.29748047 -109.35397461 583.02806641 -110.08178711 582.75048828 C-110.87842773 582.44304687 -110.87842773 582.44304687 -111.69116211 582.12939453 C-111.69116211 581.46939453 -111.69116211 580.80939453 -111.69116211 580.12939453 C-112.45428711 579.98501953 -113.21741211 579.84064453 -114.00366211 579.69189453 C-116.69116211 579.12939453 -116.69116211 579.12939453 -119.69116211 578.12939453 C-119.69116211 577.46939453 -119.69116211 576.80939453 -119.69116211 576.12939453 C-120.35116211 576.12939453 -121.01116211 576.12939453 -121.69116211 576.12939453 C-121.69116211 575.46939453 -121.69116211 574.80939453 -121.69116211 574.12939453 C-122.83584961 574.19126953 -122.83584961 574.19126953 -124.00366211 574.25439453 C-126.69116211 574.12939453 -126.69116211 574.12939453 -129.69116211 572.12939453 C-129.69116211 571.46939453 -129.69116211 570.80939453 -129.69116211 570.12939453 C-130.35116211 570.12939453 -131.01116211 570.12939453 -131.69116211 570.12939453 C-131.69116211 569.46939453 -131.69116211 568.80939453 -131.69116211 568.12939453 C-132.45428711 567.98501953 -133.21741211 567.84064453 -134.00366211 567.69189453 C-136.69116211 567.12939453 -136.69116211 567.12939453 -139.69116211 566.12939453 C-139.69116211 565.46939453 -139.69116211 564.80939453 -139.69116211 564.12939453 C-140.55741211 563.97470703 -140.55741211 563.97470703 -141.44116211 563.81689453 C-144.04777368 563.02042988 -145.66469321 561.93874176 -147.69116211 560.12939453 C-147.69116211 559.46939453 -147.69116211 558.80939453 -147.69116211 558.12939453 C-148.55741211 557.97470703 -148.55741211 557.97470703 -149.44116211 557.81689453 C-152.04777368 557.02042988 -153.66469321 555.93874176 -155.69116211 554.12939453 C-155.69116211 553.46939453 -155.69116211 552.80939453 -155.69116211 552.12939453 C-157.01116211 552.12939453 -158.33116211 552.12939453 -159.69116211 552.12939453 C-159.69116211 551.46939453 -159.69116211 550.80939453 -159.69116211 550.12939453 C-160.43366211 549.90251953 -161.17616211 549.67564453 -161.94116211 549.44189453 C-165.21235232 547.88064466 -166.50653166 545.96941411 -168.69116211 543.12939453 C-169.68116211 542.79939453 -170.67116211 542.46939453 -171.69116211 542.12939453 C-171.69116211 541.46939453 -171.69116211 540.80939453 -171.69116211 540.12939453 C-172.35116211 540.12939453 -173.01116211 540.12939453 -173.69116211 540.12939453 C-174.68116211 538.64439453 -174.68116211 538.64439453 -175.69116211 537.12939453 C-177.74120166 535.9370684 -177.74120166 535.9370684 -179.69116211 535.12939453 C-179.69116211 534.13939453 -179.69116211 533.14939453 -179.69116211 532.12939453 C-181.01116211 531.46939453 -182.33116211 530.80939453 -183.69116211 530.12939453 C-183.69116211 529.46939453 -183.69116211 528.80939453 -183.69116211 528.12939453 C-184.35116211 528.12939453 -185.01116211 528.12939453 -185.69116211 528.12939453 C-185.69116211 527.46939453 -185.69116211 526.80939453 -185.69116211 526.12939453 C-187.01116211 525.79939453 -188.33116211 525.46939453 -189.69116211 525.12939453 C-189.69116211 524.13939453 -189.69116211 523.14939453 -189.69116211 522.12939453 C-190.30991211 521.98501953 -190.92866211 521.84064453 -191.56616211 521.69189453 C-193.69116211 521.12939453 -193.69116211 521.12939453 -195.69116211 520.12939453 C-195.69116211 518.80939453 -195.69116211 517.48939453 -195.69116211 516.12939453 C-196.57481445 515.75234375 -196.57481445 515.75234375 -197.47631836 515.36767578 C-199.96760413 513.97484052 -201.31416625 512.50853734 -203.12866211 510.31689453 C-205.20344967 507.84861278 -207.26990218 505.51482992 -209.62866211 503.31689453 C-211.69116211 501.12939453 -211.69116211 501.12939453 -211.69116211 498.12939453 C-212.35116211 498.12939453 -213.01116211 498.12939453 -213.69116211 498.12939453 C-214.35116211 496.14939453 -215.01116211 494.16939453 -215.69116211 492.12939453 C-216.35116211 492.12939453 -217.01116211 492.12939453 -217.69116211 492.12939453 C-217.69116211 491.46939453 -217.69116211 490.80939453 -217.69116211 490.12939453 C-218.35116211 490.12939453 -219.01116211 490.12939453 -219.69116211 490.12939453 C-219.69116211 489.46939453 -219.69116211 488.80939453 -219.69116211 488.12939453 C-220.35116211 488.12939453 -221.01116211 488.12939453 -221.69116211 488.12939453 C-221.69116211 486.80939453 -221.69116211 485.48939453 -221.69116211 484.12939453 C-222.35116211 484.12939453 -223.01116211 484.12939453 -223.69116211 484.12939453 C-223.69116211 483.46939453 -223.69116211 482.80939453 -223.69116211 482.12939453 C-224.35116211 482.12939453 -225.01116211 482.12939453 -225.69116211 482.12939453 C-226.35116211 480.14939453 -227.01116211 478.16939453 -227.69116211 476.12939453 C-228.35116211 476.12939453 -229.01116211 476.12939453 -229.69116211 476.12939453 C-231.45578894 473.04129758 -231.69116211 471.89627317 -231.69116211 468.12939453 C-232.35116211 468.12939453 -233.01116211 468.12939453 -233.69116211 468.12939453 C-233.69116211 467.46939453 -233.69116211 466.80939453 -233.69116211 466.12939453 C-234.35116211 466.12939453 -235.01116211 466.12939453 -235.69116211 466.12939453 C-243.69116211 452.1847305 -243.69116211 452.1847305 -243.69116211 446.12939453 C-244.35116211 446.12939453 -245.01116211 446.12939453 -245.69116211 446.12939453 C-245.69116211 445.46939453 -245.69116211 444.80939453 -245.69116211 444.12939453 C-246.35116211 444.12939453 -247.01116211 444.12939453 -247.69116211 444.12939453 C-248.94781189 441.22339192 -249.69116211 439.33334869 -249.69116211 436.12939453 C-250.35116211 436.12939453 -251.01116211 436.12939453 -251.69116211 436.12939453 C-253.00742903 432.50966051 -253.69116211 430.03372322 -253.69116211 426.12939453 C-254.35116211 426.12939453 -255.01116211 426.12939453 -255.69116211 426.12939453 C-257.82208595 422.57785479 -258.19095961 419.20247199 -258.69116211 415.12939453 C-259.0108235 413.4600517 -259.33847277 411.79207283 -259.69116211 410.12939453 C-260.35116211 410.12939453 -261.01116211 410.12939453 -261.69116211 410.12939453 C-261.89612305 409.27474609 -262.10108398 408.42009766 -262.31225586 407.53955078 C-262.71637695 405.88246094 -262.71637695 405.88246094 -263.12866211 404.19189453 C-263.39549805 403.08974609 -263.66233398 401.98759766 -263.93725586 400.85205078 C-264.42111936 398.23518199 -264.42111936 398.23518199 -265.69116211 397.12939453 C-265.73180043 395.46322338 -265.73388311 393.79551358 -265.69116211 392.12939453 C-266.35116211 392.12939453 -267.01116211 392.12939453 -267.69116211 392.12939453 C-267.87291992 391.06720703 -268.05467773 390.00501953 -268.24194336 388.91064453 C-269.57682125 380.29211219 -269.57682125 380.29211219 -272.31616211 372.06689453 C-274.47187406 367.10426598 -274.25983813 361.55305745 -274.48022461 356.22705078 C-274.34126765 353.26014457 -274.34126765 353.26014457 -275.69116211 352.12939453 C-275.8360106 350.59299256 -275.91820152 349.05056319 -275.97241211 347.50830078 C-276.00979492 346.57308594 -276.04717773 345.63787109 -276.08569336 344.67431641 C-276.13790039 343.19801758 -276.13790039 343.19801758 -276.19116211 341.69189453 C-276.25990828 339.75554405 -276.33263086 337.8193294 -276.40991211 335.88330078 C-276.44020508 335.020354 -276.47049805 334.15740723 -276.50170898 333.26831055 C-276.56399355 331.07826899 -276.56399355 331.07826899 -277.69116211 329.12939453 C-277.78530782 327.74577384 -277.81909803 326.35776647 -277.82055664 324.97094727 C-277.8237088 324.11343369 -277.82686096 323.2559201 -277.83010864 322.37242126 C-277.82808441 321.44530838 -277.82606018 320.5181955 -277.82397461 319.56298828 C-277.82493134 318.61375992 -277.82588806 317.66453156 -277.82687378 316.6865387 C-277.82755491 314.67831354 -277.8257053 312.67008618 -277.8215332 310.66186523 C-277.81617812 307.57612198 -277.82148351 304.4905239 -277.82788086 301.40478516 C-277.82722018 299.45751921 -277.82593924 297.51025335 -277.82397461 295.56298828 C-277.82599884 294.63385117 -277.82802307 293.70471405 -277.83010864 292.74742126 C-277.82695648 291.89305984 -277.82380432 291.03869843 -277.82055664 290.15844727 C-277.81936325 289.02499123 -277.81936325 289.02499123 -277.81814575 287.86863708 C-277.69116211 286.12939453 -277.69116211 286.12939453 -276.69116211 285.12939453 C-276.54634924 283.58124048 -276.46413366 282.02711099 -276.40991211 280.47314453 C-276.3725293 279.53341797 -276.33514648 278.59369141 -276.29663086 277.62548828 C-276.26182617 276.63677734 -276.22702148 275.64806641 -276.19116211 274.62939453 C-276.12258583 272.68132023 -276.04989424 270.73338494 -275.97241211 268.78564453 C-275.94211914 267.91746094 -275.91182617 267.04927734 -275.88061523 266.15478516 C-275.69116211 264.12939453 -275.69116211 264.12939453 -274.69116211 263.12939453 C-274.48649039 259.66513622 -274.34521026 256.20781794 -274.26147461 252.73876953 C-274.04208857 247.49178686 -272.92384391 243.87384336 -270.69116211 239.12939453 C-270.31584765 236.80244489 -269.97199009 234.46962768 -269.69116211 232.12939453 C-269.36116211 231.79939453 -269.03116211 231.46939453 -268.69116211 231.12939453 C-268.56741211 230.07751953 -268.44366211 229.02564453 -268.31616211 227.94189453 C-267.69116211 224.12939453 -267.69116211 224.12939453 -266.31616211 221.44189453 C-263.92385028 216.56525888 -262.89515206 211.40645689 -261.69116211 206.12939453 C-261.03116211 206.12939453 -260.37116211 206.12939453 -259.69116211 206.12939453 C-259.04420069 203.17185662 -258.64334665 200.41216266 -258.44116211 197.37939453 C-257.94776586 193.03750752 -256.12250876 189.88471062 -253.84741211 186.20751953 C-252.711777 184.16644563 -252.14309826 182.40961783 -251.69116211 180.12939453 C-251.03116211 180.12939453 -250.37116211 180.12939453 -249.69116211 180.12939453 C-249.69116211 178.80939453 -249.69116211 177.48939453 -249.69116211 176.12939453 C-249.03116211 176.12939453 -248.37116211 176.12939453 -247.69116211 176.12939453 C-247.54678711 175.36626953 -247.40241211 174.60314453 -247.25366211 173.81689453 C-246.69116211 171.12939453 -246.69116211 171.12939453 -245.69116211 168.12939453 C-245.03116211 168.12939453 -244.37116211 168.12939453 -243.69116211 168.12939453 C-243.56999023 167.51451172 -243.44881836 166.89962891 -243.32397461 166.26611328 C-243.15639648 165.45787109 -242.98881836 164.64962891 -242.81616211 163.81689453 C-242.65374023 163.01638672 -242.49131836 162.21587891 -242.32397461 161.39111328 C-241.69116211 159.12939453 -241.69116211 159.12939453 -239.69116211 156.12939453 C-239.03116211 156.12939453 -238.37116211 156.12939453 -237.69116211 156.12939453 C-237.56588135 155.54077637 -237.44060059 154.9521582 -237.31152344 154.34570312 C-236.32304496 150.81425582 -234.28556415 147.85425449 -232.37866211 144.75439453 C-231.98743164 144.10728516 -231.59620117 143.46017578 -231.19311523 142.79345703 C-228.78838553 138.83741745 -226.26319454 134.97928663 -223.69116211 131.12939453 C-222.9247887 129.84737481 -222.17095021 128.55758757 -221.44116211 127.25439453 C-220.57491211 125.70751953 -220.57491211 125.70751953 -219.69116211 124.12939453 C-219.03116211 124.12939453 -218.37116211 124.12939453 -217.69116211 124.12939453 C-217.69116211 123.46939453 -217.69116211 122.80939453 -217.69116211 122.12939453 C-217.03116211 122.12939453 -216.37116211 122.12939453 -215.69116211 122.12939453 C-215.69116211 121.46939453 -215.69116211 120.80939453 -215.69116211 120.12939453 C-215.03116211 120.12939453 -214.37116211 120.12939453 -213.69116211 120.12939453 C-213.31991211 118.70626953 -213.31991211 118.70626953 -212.94116211 117.25439453 C-211.51794742 113.6963578 -211.00009874 113.57705431 -207.69116211 112.12939453 C-207.36116211 111.46939453 -207.03116211 110.80939453 -206.69116211 110.12939453 C-205.44607815 107.63922661 -204.22399415 107.14252735 -201.69116211 106.12939453 C-201.69116211 105.46939453 -201.69116211 104.80939453 -201.69116211 104.12939453 C-201.03116211 104.12939453 -200.37116211 104.12939453 -199.69116211 104.12939453 C-199.54678711 103.51064453 -199.40241211 102.89189453 -199.25366211 102.25439453 C-198.69116211 100.12939453 -198.69116211 100.12939453 -197.69116211 98.12939453 C-197.03116211 98.12939453 -196.37116211 98.12939453 -195.69116211 98.12939453 C-195.44366211 97.32501953 -195.19616211 96.52064453 -194.94116211 95.69189453 C-193.69116211 93.12939453 -193.69116211 93.12939453 -191.56616211 92.31689453 C-190.63803711 92.22408203 -190.63803711 92.22408203 -189.69116211 92.12939453 C-189.69116211 91.46939453 -189.69116211 90.80939453 -189.69116211 90.12939453 C-189.03116211 90.12939453 -188.37116211 90.12939453 -187.69116211 90.12939453 C-187.69116211 89.46939453 -187.69116211 88.80939453 -187.69116211 88.12939453 C-187.03116211 88.12939453 -186.37116211 88.12939453 -185.69116211 88.12939453 C-185.69116211 87.46939453 -185.69116211 86.80939453 -185.69116211 86.12939453 C-185.03116211 86.12939453 -184.37116211 86.12939453 -183.69116211 86.12939453 C-183.69116211 85.46939453 -183.69116211 84.80939453 -183.69116211 84.12939453 C-183.03116211 84.12939453 -182.37116211 84.12939453 -181.69116211 84.12939453 C-180.70116211 82.14939453 -180.70116211 82.14939453 -179.69116211 80.12939453 C-179.03116211 80.12939453 -178.37116211 80.12939453 -177.69116211 80.12939453 C-177.69116211 79.46939453 -177.69116211 78.80939453 -177.69116211 78.12939453 C-177.03116211 78.12939453 -176.37116211 78.12939453 -175.69116211 78.12939453 C-175.69116211 77.46939453 -175.69116211 76.80939453 -175.69116211 76.12939453 C-173.71116211 75.46939453 -171.73116211 74.80939453 -169.69116211 74.12939453 C-169.69116211 73.46939453 -169.69116211 72.80939453 -169.69116211 72.12939453 C-169.03116211 72.12939453 -168.37116211 72.12939453 -167.69116211 72.12939453 C-167.69116211 71.46939453 -167.69116211 70.80939453 -167.69116211 70.12939453 C-167.03116211 70.12939453 -166.37116211 70.12939453 -165.69116211 70.12939453 C-165.69116211 69.46939453 -165.69116211 68.80939453 -165.69116211 68.12939453 C-165.03116211 68.12939453 -164.37116211 68.12939453 -163.69116211 68.12939453 C-163.69116211 67.46939453 -163.69116211 66.80939453 -163.69116211 66.12939453 C-163.03116211 66.12939453 -162.37116211 66.12939453 -161.69116211 66.12939453 C-161.69116211 65.46939453 -161.69116211 64.80939453 -161.69116211 64.12939453 C-160.37116211 64.12939453 -159.05116211 64.12939453 -157.69116211 64.12939453 C-157.69116211 63.46939453 -157.69116211 62.80939453 -157.69116211 62.12939453 C-157.03116211 62.12939453 -156.37116211 62.12939453 -155.69116211 62.12939453 C-155.69116211 61.46939453 -155.69116211 60.80939453 -155.69116211 60.12939453 C-153.71116211 59.46939453 -151.73116211 58.80939453 -149.69116211 58.12939453 C-149.69116211 57.46939453 -149.69116211 56.80939453 -149.69116211 56.12939453 C-149.03116211 56.12939453 -148.37116211 56.12939453 -147.69116211 56.12939453 C-147.69116211 55.46939453 -147.69116211 54.80939453 -147.69116211 54.12939453 C-145.71116211 53.46939453 -143.73116211 52.80939453 -141.69116211 52.12939453 C-141.69116211 51.46939453 -141.69116211 50.80939453 -141.69116211 50.12939453 C-138.69116211 48.12939453 -138.69116211 48.12939453 -135.69116211 48.12939453 C-135.69116211 47.46939453 -135.69116211 46.80939453 -135.69116211 46.12939453 C-134.37116211 46.12939453 -133.05116211 46.12939453 -131.69116211 46.12939453 C-131.69116211 45.46939453 -131.69116211 44.80939453 -131.69116211 44.12939453 C-125.06616211 40.12939453 -125.06616211 40.12939453 -121.69116211 40.12939453 C-121.69116211 39.46939453 -121.69116211 38.80939453 -121.69116211 38.12939453 C-115.06616211 34.12939453 -115.06616211 34.12939453 -111.69116211 34.12939453 C-111.69116211 33.46939453 -111.69116211 32.80939453 -111.69116211 32.12939453 C-109.71116211 32.12939453 -107.73116211 32.12939453 -105.69116211 32.12939453 C-105.69116211 31.46939453 -105.69116211 30.80939453 -105.69116211 30.12939453 C-104.37116211 30.12939453 -103.05116211 30.12939453 -101.69116211 30.12939453 C-101.69116211 29.46939453 -101.69116211 28.80939453 -101.69116211 28.12939453 C-100.2568721 27.45584954 -98.81859154 26.79079752 -97.37866211 26.12939453 C-96.17790039 25.57251953 -96.17790039 25.57251953 -94.95288086 25.00439453 C-92.69116211 24.12939453 -92.69116211 24.12939453 -89.69116211 24.12939453 C-89.69116211 23.46939453 -89.69116211 22.80939453 -89.69116211 22.12939453 C-87.71116211 22.12939453 -85.73116211 22.12939453 -83.69116211 22.12939453 C-83.69116211 21.46939453 -83.69116211 20.80939453 -83.69116211 20.12939453 C-76.83231252 16.860496 -71.2868665 15.5475959 -63.69116211 16.12939453 C-63.69116211 15.46939453 -63.69116211 14.80939453 -63.69116211 14.12939453 C-54.32415899 10.00253865 -54.32415899 10.00253865 -49.50366211 9.56689453 C-46.01835715 9.1669415 -43.87271709 8.31520924 -40.76147461 6.82470703 C-37.01210012 5.56548315 -33.09364504 5.54490853 -29.16772461 5.34033203 C-26.74923263 5.40231382 -26.74923263 5.40231382 -25.69116211 4.12939453 C-22.19116211 3.62939453 -22.19116211 3.62939453 -18.69116211 3.12939453 C-18.36116211 2.79939453 -18.03116211 2.46939453 -17.69116211 2.12939453 C-15.11218517 1.80702241 -12.5318439 1.61672149 -9.94116211 1.41064453 C-6.36352921 0.96344042 -4.06734779 0.00254635 0 0 Z M11.30883789 127.12939453 C8.990667 127.45037204 6.67104432 127.64160409 4.34008789 127.84814453 C2.31703196 127.92005291 2.31703196 127.92005291 1.30883789 129.12939453 C-0.58444704 129.28839513 -2.4812426 129.40637286 -4.37866211 129.50439453 C-9.286948 129.87352531 -12.3491828 130.77748907 -16.69116211 133.12939453 C-19.70904566 133.93250758 -22.73659262 134.62570383 -25.78881836 135.28564453 C-28.82727508 136.16896438 -30.99731184 137.49778806 -33.69116211 139.12939453 C-36.46470316 139.9791603 -39.24576844 140.62755523 -42.07006836 141.28564453 C-44.81593423 142.16955963 -46.44927091 143.35595821 -48.69116211 145.12939453 C-51.44116211 145.81689453 -51.44116211 145.81689453 -53.69116211 146.12939453 C-53.69116211 146.78939453 -53.69116211 147.44939453 -53.69116211 148.12939453 C-54.35116211 148.12939453 -55.01116211 148.12939453 -55.69116211 148.12939453 C-55.69116211 148.78939453 -55.69116211 149.44939453 -55.69116211 150.12939453 C-56.59866211 150.41814453 -57.50616211 150.70689453 -58.44116211 151.00439453 C-61.01319119 151.89471229 -63.30462977 152.84433866 -65.69116211 154.12939453 C-65.69116211 154.78939453 -65.69116211 155.44939453 -65.69116211 156.12939453 C-67.67116211 156.12939453 -69.65116211 156.12939453 -71.69116211 156.12939453 C-71.69116211 157.44939453 -71.69116211 158.76939453 -71.69116211 160.12939453 C-73.67116211 160.78939453 -75.65116211 161.44939453 -77.69116211 162.12939453 C-77.69116211 162.78939453 -77.69116211 163.44939453 -77.69116211 164.12939453 C-78.35116211 164.12939453 -79.01116211 164.12939453 -79.69116211 164.12939453 C-79.69116211 164.78939453 -79.69116211 165.44939453 -79.69116211 166.12939453 C-80.26737305 166.22478516 -80.84358398 166.32017578 -81.43725586 166.41845703 C-84.18487043 167.28512229 -85.6329829 168.56758924 -87.75366211 170.50439453 C-88.42526367 171.11025391 -89.09686523 171.71611328 -89.78881836 172.34033203 C-90.97596693 173.45678798 -92.13572091 174.60403626 -93.24975586 175.79345703 C-94.69116211 177.12939453 -94.69116211 177.12939453 -97.69116211 178.12939453 C-98.91636475 181.13786871 -98.91636475 181.13786871 -99.69116211 184.12939453 C-100.35116211 184.12939453 -101.01116211 184.12939453 -101.69116211 184.12939453 C-101.69116211 184.78939453 -101.69116211 185.44939453 -101.69116211 186.12939453 C-102.35116211 186.12939453 -103.01116211 186.12939453 -103.69116211 186.12939453 C-103.69116211 186.78939453 -103.69116211 187.44939453 -103.69116211 188.12939453 C-104.35116211 188.12939453 -105.01116211 188.12939453 -105.69116211 188.12939453 C-105.69116211 188.78939453 -105.69116211 189.44939453 -105.69116211 190.12939453 C-106.35116211 190.12939453 -107.01116211 190.12939453 -107.69116211 190.12939453 C-111.26235061 193.03098519 -112.49202533 195.73255966 -113.69116211 200.12939453 C-114.35116211 200.12939453 -115.01116211 200.12939453 -115.69116211 200.12939453 C-117.96851221 202.94449447 -117.96851221 202.94449447 -117.69116211 206.12939453 C-118.35116211 206.12939453 -119.01116211 206.12939453 -119.69116211 206.12939453 C-121.28893734 208.30690632 -121.28893734 208.30690632 -122.81616211 211.00439453 C-123.35499023 211.90931641 -123.89381836 212.81423828 -124.44897461 213.74658203 C-125.84525141 215.97711475 -125.84525141 215.97711475 -125.69116211 218.12939453 C-126.35116211 218.12939453 -127.01116211 218.12939453 -127.69116211 218.12939453 C-132.27564183 225.43060298 -135.8232332 233.6929244 -137.69116211 242.12939453 C-138.35116211 242.12939453 -139.01116211 242.12939453 -139.69116211 242.12939453 C-139.97991211 243.20189453 -140.26866211 244.27439453 -140.56616211 245.37939453 C-141.69116211 249.12939453 -141.69116211 249.12939453 -142.75366211 251.12939453 C-144.10861326 254.01995698 -144.27575559 256.98417371 -144.69116211 260.12939453 C-145.02116211 260.45939453 -145.35116211 260.78939453 -145.69116211 261.12939453 C-145.89891772 262.79143941 -146.05834466 264.45968944 -146.19116211 266.12939453 C-146.580051 271.01828342 -146.580051 271.01828342 -147.69116211 272.12939453 C-147.89815774 273.62436295 -148.0579547 275.12605373 -148.19116211 276.62939453 C-148.580051 281.01828342 -148.580051 281.01828342 -149.69116211 282.12939453 C-149.78970633 283.72002763 -149.81914905 285.31500931 -149.82055664 286.90869141 C-149.8237088 287.92644653 -149.82686096 288.94420166 -149.83010864 289.99279785 C-149.82808441 291.10006226 -149.82606018 292.20732666 -149.82397461 293.34814453 C-149.82493134 294.4763562 -149.82588806 295.60456787 -149.82687378 296.76696777 C-149.82755579 299.15779679 -149.82570008 301.54862764 -149.8215332 303.93945312 C-149.81618527 307.61348604 -149.82147754 311.2873967 -149.82788086 314.96142578 C-149.82722008 317.2778323 -149.82593893 319.59423875 -149.82397461 321.91064453 C-149.82599884 323.01790894 -149.82802307 324.12517334 -149.83010864 325.26599121 C-149.82695648 326.28374634 -149.82380432 327.30150146 -149.82055664 328.35009766 C-149.81976105 329.25087036 -149.81896545 330.15164307 -149.81814575 331.07971191 C-149.91860817 333.12262522 -149.91860817 333.12262522 -148.69116211 334.12939453 C-148.3701846 336.44756542 -148.17895255 338.7671881 -147.97241211 341.09814453 C-147.90050374 343.12120046 -147.90050374 343.12120046 -146.69116211 344.12939453 C-146.3701846 346.44756542 -146.17895255 348.7671881 -145.97241211 351.09814453 C-145.90050374 353.12120046 -145.90050374 353.12120046 -144.69116211 354.12939453 C-144.54678711 355.20189453 -144.40241211 356.27439453 -144.25366211 357.37939453 C-143.7628122 360.65172727 -143.04906489 363.14200841 -141.69116211 366.12939453 C-141.03116211 366.12939453 -140.37116211 366.12939453 -139.69116211 366.12939453 C-139.84584961 367.33595703 -139.84584961 367.33595703 -140.00366211 368.56689453 C-139.62782477 372.85144021 -138.13138117 375.28904441 -135.88256836 378.88330078 C-134.5973289 381.30629321 -134.10381989 383.43051778 -133.69116211 386.12939453 C-133.03116211 386.12939453 -132.37116211 386.12939453 -131.69116211 386.12939453 C-131.69116211 387.44939453 -131.69116211 388.76939453 -131.69116211 390.12939453 C-131.03116211 390.12939453 -130.37116211 390.12939453 -129.69116211 390.12939453 C-129.69116211 391.44939453 -129.69116211 392.76939453 -129.69116211 394.12939453 C-129.03116211 394.12939453 -128.37116211 394.12939453 -127.69116211 394.12939453 C-127.69116211 394.78939453 -127.69116211 395.44939453 -127.69116211 396.12939453 C-127.03116211 396.12939453 -126.37116211 396.12939453 -125.69116211 396.12939453 C-125.40241211 397.03689453 -125.11366211 397.94439453 -124.81616211 398.87939453 C-123.92584435 401.45142361 -122.97621798 403.74286219 -121.69116211 406.12939453 C-121.03116211 406.12939453 -120.37116211 406.12939453 -119.69116211 406.12939453 C-119.03116211 408.10939453 -118.37116211 410.08939453 -117.69116211 412.12939453 C-117.03116211 412.12939453 -116.37116211 412.12939453 -115.69116211 412.12939453 C-115.69116211 412.78939453 -115.69116211 413.44939453 -115.69116211 414.12939453 C-115.03116211 414.12939453 -114.37116211 414.12939453 -113.69116211 414.12939453 C-113.69116211 415.44939453 -113.69116211 416.76939453 -113.69116211 418.12939453 C-113.03116211 418.12939453 -112.37116211 418.12939453 -111.69116211 418.12939453 C-111.69116211 418.78939453 -111.69116211 419.44939453 -111.69116211 420.12939453 C-111.03116211 420.12939453 -110.37116211 420.12939453 -109.69116211 420.12939453 C-109.69116211 420.78939453 -109.69116211 421.44939453 -109.69116211 422.12939453 C-109.03116211 422.12939453 -108.37116211 422.12939453 -107.69116211 422.12939453 C-107.69116211 422.78939453 -107.69116211 423.44939453 -107.69116211 424.12939453 C-107.03116211 424.12939453 -106.37116211 424.12939453 -105.69116211 424.12939453 C-105.69116211 424.78939453 -105.69116211 425.44939453 -105.69116211 426.12939453 C-105.03116211 426.12939453 -104.37116211 426.12939453 -103.69116211 426.12939453 C-103.69116211 426.78939453 -103.69116211 427.44939453 -103.69116211 428.12939453 C-103.03116211 428.12939453 -102.37116211 428.12939453 -101.69116211 428.12939453 C-101.03116211 430.10939453 -100.37116211 432.08939453 -99.69116211 434.12939453 C-99.03116211 434.12939453 -98.37116211 434.12939453 -97.69116211 434.12939453 C-97.69116211 434.78939453 -97.69116211 435.44939453 -97.69116211 436.12939453 C-97.03116211 436.12939453 -96.37116211 436.12939453 -95.69116211 436.12939453 C-95.69116211 436.78939453 -95.69116211 437.44939453 -95.69116211 438.12939453 C-92.87606217 440.40674463 -92.87606217 440.40674463 -89.69116211 440.12939453 C-89.69116211 440.78939453 -89.69116211 441.44939453 -89.69116211 442.12939453 C-89.03116211 442.12939453 -88.37116211 442.12939453 -87.69116211 442.12939453 C-87.69116211 442.78939453 -87.69116211 443.44939453 -87.69116211 444.12939453 C-87.03116211 444.12939453 -86.37116211 444.12939453 -85.69116211 444.12939453 C-85.69116211 444.78939453 -85.69116211 445.44939453 -85.69116211 446.12939453 C-85.03116211 446.12939453 -84.37116211 446.12939453 -83.69116211 446.12939453 C-83.69116211 446.78939453 -83.69116211 447.44939453 -83.69116211 448.12939453 C-83.03116211 448.12939453 -82.37116211 448.12939453 -81.69116211 448.12939453 C-81.69116211 448.78939453 -81.69116211 449.44939453 -81.69116211 450.12939453 C-80.37116211 450.12939453 -79.05116211 450.12939453 -77.69116211 450.12939453 C-77.69116211 450.78939453 -77.69116211 451.44939453 -77.69116211 452.12939453 C-77.03116211 452.12939453 -76.37116211 452.12939453 -75.69116211 452.12939453 C-75.69116211 452.78939453 -75.69116211 453.44939453 -75.69116211 454.12939453 C-73.71116211 454.78939453 -71.73116211 455.44939453 -69.69116211 456.12939453 C-69.69116211 456.78939453 -69.69116211 457.44939453 -69.69116211 458.12939453 C-68.40202724 458.80094386 -67.10976007 459.46648312 -65.81616211 460.12939453 C-65.09686523 460.50064453 -64.37756836 460.87189453 -63.63647461 461.25439453 C-61.74267234 462.26613199 -61.74267234 462.26613199 -59.69116211 462.12939453 C-59.69116211 462.78939453 -59.69116211 463.44939453 -59.69116211 464.12939453 C-57.71116211 464.78939453 -55.73116211 465.44939453 -53.69116211 466.12939453 C-53.69116211 466.78939453 -53.69116211 467.44939453 -53.69116211 468.12939453 C-52.11148404 468.80467676 -50.52724308 469.46929147 -48.94116211 470.12939453 C-48.05944336 470.50064453 -47.17772461 470.87189453 -46.26928711 471.25439453 C-43.5136244 472.34365336 -43.5136244 472.34365336 -39.69116211 472.12939453 C-39.69116211 472.78939453 -39.69116211 473.44939453 -39.69116211 474.12939453 C-36.81795594 475.73838998 -33.93846005 476.69100423 -30.76928711 477.55908203 C-28.27663677 478.24315524 -25.79583058 478.96216352 -23.31616211 479.69189453 C-22.03612305 480.06507813 -22.03612305 480.06507813 -20.73022461 480.44580078 C-18.69116211 481.12939453 -18.69116211 481.12939453 -17.69116211 482.12939453 C-16.63928711 482.25314453 -15.58741211 482.37689453 -14.50366211 482.50439453 C-10.69116211 483.12939453 -10.69116211 483.12939453 -8.21850586 484.62939453 C-3.03293623 486.83455371 1.97795001 486.66160067 7.55883789 486.75439453 C9.73080576 486.80526029 11.90269254 486.85976054 14.07446289 486.91845703 C15.03126953 486.93602051 15.98807617 486.95358398 16.97387695 486.97167969 C19.30883789 487.12939453 19.30883789 487.12939453 21.30883789 488.12939453 C23.77889126 488.22773389 26.2144145 488.26842535 28.68383789 488.25439453 C29.35672852 488.25826172 30.02961914 488.26212891 30.72290039 488.26611328 C34.48760227 488.27446012 34.48760227 488.27446012 38.18139648 487.64086914 C40.79417937 487.01270984 43.26424559 486.91296978 45.94946289 486.81298828 C47.01938477 486.77109375 48.08930664 486.72919922 49.19165039 486.68603516 C50.30282227 486.64671875 51.41399414 486.60740234 52.55883789 486.56689453 C53.68547852 486.52371094 54.81211914 486.48052734 55.97290039 486.43603516 C58.75142743 486.33007438 61.5300418 486.22800311 64.30883789 486.12939453 C64.30883789 485.46939453 64.30883789 484.80939453 64.30883789 484.12939453 C65.11321289 484.15001953 65.91758789 484.17064453 66.74633789 484.19189453 C69.24238674 484.42573074 69.24238674 484.42573074 70.30883789 483.12939453 C71.34008789 483.00564453 72.37133789 482.88189453 73.43383789 482.75439453 C77.47680193 482.10230356 80.59353653 480.81179515 84.30883789 479.12939453 C85.63159845 478.75630822 86.96115866 478.39893038 88.30883789 478.12939453 C88.30883789 477.46939453 88.30883789 476.80939453 88.30883789 476.12939453 C89.21633789 476.17064453 90.12383789 476.21189453 91.05883789 476.25439453 C94.18704249 476.13407897 95.69497795 475.73792373 98.30883789 474.12939453 C98.30883789 473.46939453 98.30883789 472.80939453 98.30883789 472.12939453 C98.94821289 472.21189453 99.58758789 472.29439453 100.24633789 472.37939453 C104.71176546 472.01486983 108.31795018 470.07701729 112.30883789 468.12939453 C112.30883789 467.46939453 112.30883789 466.80939453 112.30883789 466.12939453 C112.86571289 466.02626953 113.42258789 465.92314453 113.99633789 465.81689453 C116.75882382 464.99561493 118.85194937 463.62749729 121.30883789 462.12939453 C122.96253146 461.43116836 124.62610803 460.75440848 126.30883789 460.12939453 C126.30883789 459.46939453 126.30883789 458.80939453 126.30883789 458.12939453 C126.96883789 458.12939453 127.62883789 458.12939453 128.30883789 458.12939453 C128.30883789 457.46939453 128.30883789 456.80939453 128.30883789 456.12939453 C128.88633789 456.00564453 129.46383789 455.88189453 130.05883789 455.75439453 C132.3598343 455.11522886 134.24993404 454.33633817 136.30883789 453.12939453 C136.63883789 452.46939453 136.96883789 451.80939453 137.30883789 451.12939453 C138.29883789 450.79939453 139.28883789 450.46939453 140.30883789 450.12939453 C140.30883789 449.46939453 140.30883789 448.80939453 140.30883789 448.12939453 C140.96883789 448.12939453 141.62883789 448.12939453 142.30883789 448.12939453 C142.30883789 447.46939453 142.30883789 446.80939453 142.30883789 446.12939453 C142.96883789 446.12939453 143.62883789 446.12939453 144.30883789 446.12939453 C144.30883789 445.46939453 144.30883789 444.80939453 144.30883789 444.12939453 C144.96883789 444.12939453 145.62883789 444.12939453 146.30883789 444.12939453 C146.30883789 443.46939453 146.30883789 442.80939453 146.30883789 442.12939453 C148.28883789 441.46939453 150.26883789 440.80939453 152.30883789 440.12939453 C152.30883789 439.46939453 152.30883789 438.80939453 152.30883789 438.12939453 C152.96883789 438.12939453 153.62883789 438.12939453 154.30883789 438.12939453 C154.30883789 437.46939453 154.30883789 436.80939453 154.30883789 436.12939453 C154.96883789 436.12939453 155.62883789 436.12939453 156.30883789 436.12939453 C158.58618799 433.3142946 158.58618799 433.3142946 158.30883789 430.12939453 C158.86571289 429.90251953 159.42258789 429.67564453 159.99633789 429.44189453 C162.95578879 427.76220618 164.97010573 425.58806168 167.30883789 423.12939453 C167.90696289 422.57251953 168.50508789 422.01564453 169.12133789 421.44189453 C170.53247567 420.17721182 170.53247567 420.17721182 170.30883789 418.12939453 C170.96883789 418.12939453 171.62883789 418.12939453 172.30883789 418.12939453 C172.96883789 416.14939453 173.62883789 414.16939453 174.30883789 412.12939453 C174.96883789 412.12939453 175.62883789 412.12939453 176.30883789 412.12939453 C176.30883789 411.46939453 176.30883789 410.80939453 176.30883789 410.12939453 C176.96883789 410.12939453 177.62883789 410.12939453 178.30883789 410.12939453 C178.96883789 408.14939453 179.62883789 406.16939453 180.30883789 404.12939453 C180.96883789 404.12939453 181.62883789 404.12939453 182.30883789 404.12939453 C182.92758789 402.99501953 183.54633789 401.86064453 184.18383789 400.69189453 C186.05883789 397.25439453 186.05883789 397.25439453 188.30883789 396.12939453 C188.99815133 393.78031578 188.99815133 393.78031578 189.43383789 391.06689453 C189.60141602 390.14779297 189.76899414 389.22869141 189.94165039 388.28173828 C190.06282227 387.57146484 190.18399414 386.86119141 190.30883789 386.12939453 C190.96883789 386.12939453 191.62883789 386.12939453 192.30883789 386.12939453 C192.30883789 384.80939453 192.30883789 383.48939453 192.30883789 382.12939453 C192.96883789 382.12939453 193.62883789 382.12939453 194.30883789 382.12939453 C194.30883789 380.80939453 194.30883789 379.48939453 194.30883789 378.12939453 C194.96883789 378.12939453 195.62883789 378.12939453 196.30883789 378.12939453 C198.62979405 374.64796029 198.80398261 372.24035899 199.30883789 368.12939453 C199.61787772 366.79022192 199.938267 365.45286199 200.30883789 364.12939453 C200.96883789 364.12939453 201.62883789 364.12939453 202.30883789 364.12939453 C204.25915481 360.05215719 204.5246576 356.81247031 204.43383789 352.31689453 C204.41579102 351.15544922 204.39774414 349.99400391 204.37915039 348.79736328 C204.35594727 347.91693359 204.33274414 347.03650391 204.30883789 346.12939453 C204.96883789 346.12939453 205.62883789 346.12939453 206.30883789 346.12939453 C206.45321289 344.99501953 206.59758789 343.86064453 206.74633789 342.69189453 C207.30883789 339.12939453 207.30883789 339.12939453 208.30883789 338.12939453 C208.45308277 336.73917876 208.53570978 335.34242152 208.59008789 333.94580078 C208.6274707 333.10082031 208.66485352 332.25583984 208.70336914 331.38525391 C208.75557617 330.05204102 208.75557617 330.05204102 208.80883789 328.69189453 C208.87762065 326.94302913 208.95034972 325.19431315 209.02758789 323.44580078 C209.05788086 322.66664307 209.08817383 321.88748535 209.11938477 321.0847168 C209.30883789 319.12939453 209.30883789 319.12939453 210.30883789 317.12939453 C210.40388314 315.70479173 210.43956649 314.27591286 210.44165039 312.84814453 C210.44358398 311.58550781 210.44358398 311.58550781 210.44555664 310.29736328 C210.44168945 309.41693359 210.43782227 308.53650391 210.43383789 307.62939453 C210.43770508 306.74896484 210.44157227 305.86853516 210.44555664 304.96142578 C210.44426758 304.11966797 210.44297852 303.27791016 210.44165039 302.41064453 C210.44052246 301.63785156 210.43939453 300.86505859 210.43823242 300.06884766 C210.42890875 298.04730254 210.42890875 298.04730254 209.30883789 296.12939453 C209.16978647 294.69426206 209.08360356 293.25375292 209.02758789 291.81298828 C208.99020508 290.96671875 208.95282227 290.12044922 208.91430664 289.24853516 C208.84384075 287.45687452 208.77352891 285.66520781 208.70336914 283.87353516 C208.66598633 283.02855469 208.62860352 282.18357422 208.59008789 281.31298828 C208.55979492 280.5349585 208.52950195 279.75692871 208.49829102 278.95532227 C208.50085553 277.1112937 208.50085553 277.1112937 207.30883789 276.12939453 C206.97550456 273.7960612 206.64217122 271.46272786 206.30883789 269.12939453 C205.97883789 268.79939453 205.64883789 268.46939453 205.30883789 268.12939453 C205.20100009 266.50583657 205.12331948 264.88025171 205.05883789 263.25439453 C204.62395808 257.68068497 202.92211635 253.55628464 200.45336914 248.59033203 C199.15284783 245.79398928 198.55791012 243.20128531 198.30883789 240.12939453 C197.64883789 240.12939453 196.98883789 240.12939453 196.30883789 240.12939453 C196.19668945 239.57767578 196.08454102 239.02595703 195.96899414 238.45751953 C195.19523016 235.72874242 194.04066095 233.40166511 192.74633789 230.87939453 C192.29129883 229.98736328 191.83625977 229.09533203 191.36743164 228.17626953 C191.0180957 227.50080078 190.66875977 226.82533203 190.30883789 226.12939453 C189.64883789 226.12939453 188.98883789 226.12939453 188.30883789 226.12939453 C188.39133789 225.26314453 188.47383789 224.39689453 188.55883789 223.50439453 C188.25010412 219.33648865 186.9112321 217.3441168 184.30883789 214.12939453 C183.64883789 214.12939453 182.98883789 214.12939453 182.30883789 214.12939453 C182.30883789 212.80939453 182.30883789 211.48939453 182.30883789 210.12939453 C181.64883789 210.12939453 180.98883789 210.12939453 180.30883789 210.12939453 C180.30883789 209.46939453 180.30883789 208.80939453 180.30883789 208.12939453 C179.64883789 208.12939453 178.98883789 208.12939453 178.30883789 208.12939453 C178.20571289 207.55189453 178.10258789 206.97439453 177.99633789 206.37939453 C177.19987324 203.77278296 176.11818512 202.15586343 174.30883789 200.12939453 C173.64883789 200.12939453 172.98883789 200.12939453 172.30883789 200.12939453 C172.30883789 198.80939453 172.30883789 197.48939453 172.30883789 196.12939453 C171.64883789 196.12939453 170.98883789 196.12939453 170.30883789 196.12939453 C170.30883789 195.46939453 170.30883789 194.80939453 170.30883789 194.12939453 C169.64883789 194.12939453 168.98883789 194.12939453 168.30883789 194.12939453 C168.30883789 193.46939453 168.30883789 192.80939453 168.30883789 192.12939453 C167.64883789 192.12939453 166.98883789 192.12939453 166.30883789 192.12939453 C166.30883789 190.80939453 166.30883789 189.48939453 166.30883789 188.12939453 C164.98883789 188.12939453 163.66883789 188.12939453 162.30883789 188.12939453 C162.30883789 187.46939453 162.30883789 186.80939453 162.30883789 186.12939453 C161.64883789 186.12939453 160.98883789 186.12939453 160.30883789 186.12939453 C160.30883789 185.46939453 160.30883789 184.80939453 160.30883789 184.12939453 C159.64883789 184.12939453 158.98883789 184.12939453 158.30883789 184.12939453 C157.90665039 182.67533203 157.90665039 182.67533203 157.49633789 181.19189453 C157.10446289 180.18126953 156.71258789 179.17064453 156.30883789 178.12939453 C155.31883789 177.79939453 154.32883789 177.46939453 153.30883789 177.12939453 C152.83446289 176.28376953 152.36008789 175.43814453 151.87133789 174.56689453 C151.35571289 173.76251953 150.84008789 172.95814453 150.30883789 172.12939453 C148.98883789 172.12939453 147.66883789 172.12939453 146.30883789 172.12939453 C146.30883789 171.46939453 146.30883789 170.80939453 146.30883789 170.12939453 C145.64883789 170.12939453 144.98883789 170.12939453 144.30883789 170.12939453 C144.30883789 169.46939453 144.30883789 168.80939453 144.30883789 168.12939453 C143.64883789 168.12939453 142.98883789 168.12939453 142.30883789 168.12939453 C142.30883789 167.46939453 142.30883789 166.80939453 142.30883789 166.12939453 C139.55120876 164.2440303 136.68775243 162.58333761 133.81274414 160.88330078 C131.30883789 159.12939453 131.30883789 159.12939453 130.30883789 156.12939453 C128.32883789 156.12939453 126.34883789 156.12939453 124.30883789 156.12939453 C124.30883789 155.46939453 124.30883789 154.80939453 124.30883789 154.12939453 C122.66915039 153.13939453 122.66915039 153.13939453 120.99633789 152.12939453 C120.38145508 151.75814453 119.76657227 151.38689453 119.13305664 151.00439453 C117.19521863 149.91315454 117.19521863 149.91315454 114.30883789 150.12939453 C114.30883789 149.46939453 114.30883789 148.80939453 114.30883789 148.12939453 C113.64883789 148.12939453 112.98883789 148.12939453 112.30883789 148.12939453 C112.30883789 147.46939453 112.30883789 146.80939453 112.30883789 146.12939453 C109.40283528 144.87274475 107.51279205 144.12939453 104.30883789 144.12939453 C104.30883789 143.46939453 104.30883789 142.80939453 104.30883789 142.12939453 C100.18920019 140.83695918 96.64052106 139.86686828 92.30883789 140.12939453 C92.30883789 139.46939453 92.30883789 138.80939453 92.30883789 138.12939453 C90.98883789 138.12939453 89.66883789 138.12939453 88.30883789 138.12939453 C88.30883789 137.46939453 88.30883789 136.80939453 88.30883789 136.12939453 C87.1312793 135.85675781 87.1312793 135.85675781 85.92993164 135.57861328 C76.98774608 133.43907195 76.98774608 133.43907195 72.74633789 131.50439453 C68.63464102 129.85971578 64.95947238 129.59169242 60.56665039 129.34033203 C58.30883789 129.12939453 58.30883789 129.12939453 57.30883789 128.12939453 C55.81386947 127.9223989 54.31217869 127.76260194 52.80883789 127.62939453 C48.419949 127.24050564 48.419949 127.24050564 47.30883789 126.12939453 C44.72694343 126.02847978 42.17237289 125.98967955 39.59008789 125.99658203 C38.81701294 125.99562531 38.04393799 125.99466858 37.24743652 125.99368286 C35.60986246 125.99300112 33.9722857 125.99485496 32.3347168 125.99902344 C29.81951869 126.00437182 27.30449916 125.99907827 24.78930664 125.99267578 C23.20206666 125.99333656 21.61482679 125.99461773 20.02758789 125.99658203 C18.89166199 125.99354568 18.89166199 125.99354568 17.73278809 125.990448 C14.22868226 125.6848577 14.22868226 125.6848577 11.30883789 127.12939453 Z " fill="#000000" transform="translate(434.691162109375,50.87060546875)"/>
</svg>
