<?xml version="1.0" encoding="UTF-8"?>
<svg version="1.1" xmlns="http://www.w3.org/2000/svg" width="300" height="300" viewBox="35 35 230 230">
<path d="M0 0 C1.5438003 -0.00243369 3.08759901 -0.00615859 4.63139343 -0.01106262 C8.78826513 -0.0203939 12.94489817 -0.01111346 17.10175109 0.00226951 C21.46971488 0.01366385 25.83766829 0.00947052 30.2056427 0.00752258 C37.5345953 0.0066424 44.86345491 0.0176645 52.19238281 0.03613281 C60.64829459 0.05731991 69.10407051 0.06080359 77.56000346 0.05457085 C85.72176087 0.04886458 93.88347077 0.05453621 102.04522133 0.0657444 C105.5071126 0.07037124 108.96897464 0.0712726 112.43086815 0.06915855 C116.50954645 0.06726653 120.58808765 0.07544939 124.6667347 0.09121895 C126.15779935 0.09543865 127.64887798 0.09632805 129.13994598 0.09352875 C143.30079326 0.07098781 154.85850131 1.79839253 165.64770508 11.66137695 C176.05281405 22.59048422 176.72932385 35.69375631 176.64892578 50.09570312 C176.65135948 51.63950342 176.65508437 53.18330213 176.6599884 54.72709656 C176.66931968 58.88396826 176.66003924 63.0406013 176.64665627 67.19745421 C176.63526193 71.56541801 176.63945526 75.93337142 176.6414032 80.30134583 C176.64228338 87.63029842 176.63126128 94.95915803 176.61279297 102.28808594 C176.59160588 110.74399771 176.58812219 119.19977363 176.59435493 127.65570658 C176.6000612 135.81746399 176.59438957 143.9791739 176.58318138 152.14092445 C176.57855454 155.60281573 176.57765318 159.06467776 176.57976723 162.52657127 C176.58165925 166.60524958 176.5734764 170.68379077 176.55770683 174.76243782 C176.55348713 176.25350248 176.55259773 177.74458111 176.55539703 179.23564911 C176.57793797 193.39649638 174.85053325 204.95420444 164.98754883 215.7434082 C154.05844156 226.14851718 140.95516947 226.82502697 126.55322266 226.74462891 C125.00942236 226.7470626 123.46562365 226.75078749 121.92182922 226.75569153 C117.76495752 226.7650228 113.60832448 226.75574237 109.45147157 226.7423594 C105.08350777 226.73096506 100.71555436 226.73515838 96.34757996 226.73710632 C89.01862736 226.73798651 81.68976775 226.72696441 74.36083984 226.70849609 C65.90492807 226.687309 57.44915215 226.68382531 48.9932192 226.69005805 C40.83146179 226.69576433 32.66975188 226.69009269 24.50800133 226.67888451 C21.04611006 226.67425766 17.58424802 226.6733563 14.12235451 226.67547035 C10.0436762 226.67736238 5.96513501 226.66917952 1.88648796 226.65340996 C0.3954233 226.64919026 -1.09565533 226.64830085 -2.58672333 226.65110016 C-16.7475706 226.6736411 -28.30527865 224.94623637 -39.09448242 215.08325195 C-49.4995914 204.15414469 -50.17610119 191.05087259 -50.09570312 176.64892578 C-50.09813682 175.10512548 -50.10186171 173.56132677 -50.10676575 172.01753235 C-50.11609702 167.86066065 -50.10681659 163.70402761 -50.09343362 159.54717469 C-50.08203928 155.1792109 -50.0862326 150.81125749 -50.08818054 146.44328308 C-50.08906073 139.11433048 -50.07803863 131.78547087 -50.05957031 124.45654297 C-50.03838322 116.0006312 -50.03489953 107.54485527 -50.04113227 99.08892232 C-50.04683855 90.92716491 -50.04116691 82.76545501 -50.02995872 74.60370445 C-50.02533188 71.14181318 -50.02443052 67.67995114 -50.02654457 64.21805763 C-50.02843659 60.13937933 -50.02025374 56.06083813 -50.00448418 51.98219109 C-50.00026448 50.49112643 -49.99937507 49.0000478 -50.00217438 47.5089798 C-50.02471531 33.34813253 -48.29731059 21.79042447 -38.43432617 11.0012207 C-27.5052189 0.59611173 -14.40194681 -0.08039807 0 0 Z M-20.72338867 29.37231445 C-23.34766538 33.70885738 -24.09932898 36.93863901 -24.1043396 41.97583008 C-24.11279907 43.28801514 -24.12125854 44.6002002 -24.12997437 45.95214844 C-24.12414225 47.39428836 -24.11799779 48.83642705 -24.11157227 50.27856445 C-24.11564009 51.80664444 -24.12098316 53.33472148 -24.12750244 54.86279297 C-24.14115681 59.00327798 -24.13588521 63.14353825 -24.12636518 67.2840271 C-24.11875884 71.62140499 -24.12581691 75.95876391 -24.13052368 80.29614258 C-24.13597839 87.57938077 -24.1287971 94.86252763 -24.11450195 102.14575195 C-24.09817597 110.56073577 -24.10346468 118.97550151 -24.11998117 127.39048004 C-24.13360415 134.62122715 -24.13551173 141.85190869 -24.12766516 149.08266449 C-24.12299311 153.39873325 -24.12235092 157.71469958 -24.13227463 162.03076172 C-24.14095385 166.08887925 -24.13490506 170.14671618 -24.11759186 174.20480347 C-24.1136321 175.69228653 -24.11475233 177.17979328 -24.12137985 178.66726685 C-24.12960482 180.70110214 -24.11745128 182.73498917 -24.1043396 184.76879883 C-24.10320852 185.9058728 -24.10207745 187.04294678 -24.10091209 188.21447754 C-23.66603891 191.85202298 -22.61347647 194.2489979 -20.72338867 197.37231445 C-15.65547904 201.05066526 -10.59569384 200.78164337 -4.5871582 200.71289062 C-3.0546407 200.71343303 -3.0546407 200.71343303 -1.49116325 200.7139864 C1.80402596 200.71175373 5.09870111 200.68893746 8.39379883 200.6652832 C10.43294022 200.66087036 12.472085 200.65781105 14.51123047 200.65612793 C22.05807603 200.64042243 29.60484877 200.59853865 37.15161133 200.55981445 C62.45848633 200.46700195 62.45848633 200.46700195 88.27661133 200.37231445 C88.27661133 142.95231445 88.27661133 85.53231445 88.27661133 26.37231445 C71.40536133 26.31043945 54.53411133 26.24856445 37.15161133 26.18481445 C31.82891113 26.15750244 26.50621094 26.13019043 21.0222168 26.10205078 C16.24159532 26.09201608 16.24159532 26.09201608 11.46096802 26.08598328 C9.33537919 26.08138335 7.20979808 26.07084621 5.08425903 26.05558777 C1.86031541 26.03360573 -1.36315078 26.0305972 -4.5871582 26.03173828 C-5.53051088 26.02094396 -6.47386356 26.01014963 -7.44580269 25.99902821 C-12.56607848 26.02326289 -16.43349169 26.25865474 -20.72338867 29.37231445 Z M113.27661133 26.37231445 C113.27661133 83.79231445 113.27661133 141.21231445 113.27661133 200.37231445 C138.22065176 202.45931123 138.22065176 202.45931123 147.27661133 197.37231445 C150.09295153 193.15085538 150.65257406 189.7834472 150.65756226 184.76879883 C150.66602173 183.45661377 150.6744812 182.14442871 150.68319702 180.79248047 C150.67736491 179.35034054 150.67122045 177.90820186 150.66479492 176.46606445 C150.66886275 174.93798447 150.67420582 173.40990743 150.6807251 171.88183594 C150.69437947 167.74135093 150.68910786 163.60109065 150.67958784 159.46060181 C150.67198149 155.12322391 150.67903956 150.78586499 150.68374634 146.44848633 C150.68920105 139.16524814 150.68201975 131.88210127 150.66772461 124.59887695 C150.65139862 116.18389314 150.65668733 107.7691274 150.67320383 99.35414886 C150.68682681 92.12340176 150.68873439 84.89272022 150.68088782 77.66196442 C150.67621576 73.34589566 150.67557357 69.02992933 150.68549728 64.71386719 C150.6941765 60.65574966 150.68812772 56.59791273 150.67081451 52.53982544 C150.66685476 51.05234238 150.66797498 49.56483562 150.67460251 48.07736206 C150.68282748 46.04352677 150.67067394 44.00963974 150.65756226 41.97583008 C150.65643118 40.8387561 150.6553001 39.70168213 150.65413475 38.53015137 C150.20714121 34.79122387 149.36869551 32.50817416 147.27661133 29.37231445 C138.22065176 24.28531767 138.22065176 24.28531767 113.27661133 26.37231445 Z " fill="#000000" transform="translate(86.723388671875,36.627685546875)"/>
<path d="M0 0 C3.44671208 2.53159054 6.39448268 5.25733514 9.39941406 8.28515625 C9.9632782 8.84710693 10.52714233 9.40905762 11.10809326 9.98803711 C12.29034029 11.16893121 13.4700979 12.35232239 14.64746094 13.53808594 C16.44799618 15.34937356 18.25901071 17.1496891 20.07128906 18.94921875 C21.22297287 20.10222353 22.37403647 21.25584822 23.52441406 22.41015625 C24.06398743 22.94568115 24.60356079 23.48120605 25.15948486 24.03295898 C29.03050114 27.95268393 31.44855781 31.03350867 31.75878906 36.59765625 C31.5975077 40.35848074 30.94219368 42.14863963 28.38769531 44.90234375 C27.7524292 45.59070313 27.11716309 46.2790625 26.46264648 46.98828125 C25.71474854 47.766875 24.96685059 48.54546875 24.19628906 49.34765625 C23.32141846 50.2603125 22.44654785 51.17296875 21.54516602 52.11328125 C19.09056764 54.65336944 16.60912896 57.16552366 14.11621094 59.66796875 C12.56012751 61.23388836 11.01503412 62.81017314 9.46972656 64.38671875 C8.47038458 65.39258127 7.47040712 66.39781291 6.46972656 67.40234375 C5.57688965 68.30452637 4.68405273 69.20670898 3.76416016 70.13623047 C0.38435703 73.04688427 -2.35271901 74.16242324 -6.74121094 74.72265625 C-11.61171037 74.12626856 -14.53233866 71.83092391 -17.67871094 68.16015625 C-19.31311153 64.07415476 -19.78823532 60.67227075 -18.80371094 56.34765625 C-16.92290866 53.2129858 -14.4311586 50.86749514 -11.80371094 48.34765625 C-10.82983412 47.36838773 -9.85864011 46.3864464 -8.88964844 45.40234375 C-6.21617787 42.69478049 -3.51625253 40.01605159 -0.80371094 37.34765625 C-2.14654693 34.34101371 -3.61941899 32.30925425 -5.99121094 30.03515625 C-6.60738281 29.43445313 -7.22355469 28.83375 -7.85839844 28.21484375 C-8.50035156 27.59867188 -9.14230469 26.9825 -9.80371094 26.34765625 C-11.07923507 25.12335799 -12.35024758 23.8943381 -13.61621094 22.66015625 C-14.17953125 22.12003906 -14.74285156 21.57992187 -15.32324219 21.0234375 C-18.7281564 17.16932617 -19.3019423 13.60579454 -19.18652344 8.6015625 C-18.51560249 4.65134424 -16.74905499 3.03119194 -13.80371094 0.34765625 C-9.08583111 -2.31371186 -4.73777805 -2.79217014 0 0 Z " fill="#000000" transform="translate(118.8037109375,113.65234375)"/>
</svg>
