<svg version="1.1" id="Layer_1" xmlns="http://www.w3.org/2000/svg" xmlns:xlink="http://www.w3.org/1999/xlink" x="0px" y="0px"
	 width="100%" viewBox="0 0 265 217" enable-background="new 0 0 265 217" xml:space="preserve">
<path fill="#1C1C1C" opacity="1.000000" stroke="none" 
	d="
M186.975677,9.091161 
	C187.397110,7.845748 187.818542,6.600335 189.018936,5.247021 
	C201.530762,5.092535 213.263611,5.045952 224.996475,4.999370 
	C225.662155,5.272413 226.327820,5.545455 227.190216,6.261762 
	C227.646973,7.165762 227.907043,7.626497 228.212158,8.548634 
	C228.288345,29.809917 228.284515,50.610012 228.411270,71.409317 
	C228.422455,73.244438 229.286758,75.074371 229.754822,76.906723 
	C236.871719,82.753098 243.921875,88.683426 251.129639,94.415558 
	C255.730774,98.074745 260.565155,101.440651 265.647461,104.969025 
	C266.000000,107.700012 266.000000,110.400032 266.000000,113.550018 
	C263.128021,116.829994 259.920532,119.397919 257.459198,122.548698 
	C253.310226,127.859856 249.979660,128.560150 244.716064,124.214874 
	C237.074127,117.906174 229.568771,111.431969 221.923233,105.127686 
	C206.277008,92.226234 190.509705,79.470917 174.920273,66.501534 
	C163.646835,57.122772 152.593231,47.480087 141.408310,37.994328 
	C139.410248,36.299793 137.249664,34.796890 134.880814,32.989319 
	C124.327667,41.801231 113.879883,50.585434 103.364120,59.287495 
	C94.361015,66.737793 85.236122,74.041107 76.245918,81.506752 
	C67.364929,88.881706 58.586761,96.380463 49.760696,103.821594 
	C41.190056,111.047363 32.702614,118.375717 24.002571,125.442253 
	C20.277075,128.468246 15.776340,127.314697 12.911905,123.247108 
	C11.205383,120.823769 9.524233,118.351738 7.550821,116.153755 
	C3.791663,111.966835 4.026069,106.383125 8.307066,102.759193 
	C22.025326,91.146454 35.638912,79.407738 49.471725,67.933228 
	C67.759857,52.762966 86.232582,37.815426 104.591156,22.729795 
	C109.443855,18.742231 114.189102,14.622750 118.948036,10.522446 
	C129.284485,1.616531 140.434326,1.497604 150.745712,10.274729 
	C161.434204,19.372864 172.084076,28.516403 182.776382,37.610043 
	C183.254959,38.017063 183.986481,38.126682 184.812180,39.003181 
	C188.702316,41.317814 186.880325,37.934643 186.891296,37.234783 
	C187.038284,27.855440 186.981689,18.472904 186.975677,9.091161 
z"/>
<path fill="#1B1B1B" opacity="1.000000" stroke="none" 
	d="
M48.875648,211.973984 
	C46.682224,210.305115 44.488800,208.636246 42.327721,206.245239 
	C42.140881,204.632965 41.921692,203.742844 41.704071,202.393478 
	C41.745434,175.651749 41.785225,149.369247 42.001492,122.832664 
	C42.143738,122.375198 42.109505,122.171822 42.075272,121.968445 
	C51.718155,113.939728 61.352341,105.900536 71.006241,97.885071 
	C81.825165,88.902313 92.654182,79.931664 103.494598,70.974861 
	C108.057915,67.204468 112.688599,63.515373 117.238472,59.729019 
	C120.796638,56.767941 124.325829,53.768204 127.781746,50.688953 
	C133.647034,45.462933 135.930206,45.410278 142.048492,50.577232 
	C149.111816,56.542282 156.195160,62.483871 163.231918,68.480118 
	C172.427002,76.315536 181.463074,84.342628 190.789749,92.017235 
	C202.398148,101.569405 214.239822,110.837875 225.955322,120.260475 
	C226.719131,120.874802 227.265976,121.758904 228.108704,123.306381 
	C228.244110,150.708405 228.184555,177.321564 227.961365,204.274658 
	C227.523056,205.806030 227.248383,206.997482 226.973740,208.188934 
	C226.760712,208.441727 226.547668,208.694489 225.955688,209.172455 
	C225.196182,209.813858 224.815598,210.230072 224.434998,210.646286 
	C223.534210,211.066208 222.633423,211.486145 220.896027,211.900330 
	C198.673569,211.915268 177.287720,211.935944 155.901871,211.956635 
	C155.901871,211.956635 156.027039,211.967239 156.060730,211.556290 
	C156.063553,192.704315 156.059586,174.263153 155.955200,155.822540 
	C155.945999,154.194366 155.280945,152.569901 154.920502,150.943710 
	C154.920502,150.943710 155.066589,150.947296 154.957138,150.578186 
	C141.467285,150.209091 128.086899,150.209091 114.111946,150.209091 
	C114.111946,170.747665 114.111946,190.851318 113.952148,211.224564 
	C113.863655,211.690521 113.934959,211.886902 114.006264,212.083267 
	C114.006264,212.083267 114.000351,211.959167 113.585510,211.939575 
	C91.738998,211.938004 70.307320,211.955994 48.875648,211.973984 
z"/>
</svg>