<?xml version="1.0" encoding="UTF-8"?>
<svg version="1.1" xmlns="http://www.w3.org/2000/svg" width="116" height="122">
<path d="M0 0 C4.75784932 2.98531722 7.18562442 6.47584064 9.921875 11.328125 C10.90541706 13.16492557 10.90541706 13.16492557 13 14 C18.60703213 14.21377721 18.60703213 14.21377721 24 13 C31.06408952 12.43031536 31.06408952 12.43031536 34.875 14.75 C38.25925926 18.33333333 38.25925926 18.33333333 39 21 C38.67341041 24.98439296 38.0448145 28.75963134 37.3125 32.6875 C36.96614615 36.35885085 37.29874497 37.77762283 39 41 C41.26628169 42.9496733 41.26628169 42.9496733 43.9375 44.5625 C47.33278258 46.7276802 49.89146999 48.52432634 52 52 C52.53728368 56.14475982 52.28334815 58.42196978 50.4375 62.1875 C47.48995027 65.58851892 45.04012592 67.05475419 41 69 C40.34 69 39.68 69 39 69 C37.08392696 74.95686222 37.08392696 74.95686222 37.9375 81 C39.2678394 85.45488653 39.11864872 88.45082852 38 93 C36.0625 96 36.0625 96 33 98 C27.36734044 98.84539044 21.60353021 97.95735415 16.0078125 97.12109375 C13.76718312 96.98595851 12.11605743 97.26258605 10 98 C8.89831016 99.69769234 8.89831016 99.69769234 8 102 C4.86279209 108.38645896 4.86279209 108.38645896 1.1875 111 C-2.77450728 112.24298268 -5.01328542 112.15977151 -9 111 C-12.19671981 108.47236108 -14.17798569 105.83182021 -16.125 102.3125 C-17.76816926 98.82893766 -17.76816926 98.82893766 -21 97 C-24.70544587 96.80149397 -27.47005387 96.82335129 -31 98 C-35.5730288 98.60973717 -39.64020008 98.78503723 -43.5 96 C-46.78269549 92.06076541 -46.91819746 90.07175746 -47 85 C-46.67 84.01 -46.34 83.02 -46 82 C-45.2994138 75.54470392 -45.2994138 75.54470392 -47.5 69.6875 C-50.3287688 67.77808106 -53.21548471 66.00795571 -56.1953125 64.34375 C-58.33745875 62.74873202 -59.05270271 61.47899688 -60 59 C-60.56867829 54.6130532 -60.40611894 52.63456084 -58 48.875 C-55.29070743 45.96328902 -52.11806456 44.02146498 -48.671875 42.078125 C-46.83507443 41.09458294 -46.83507443 41.09458294 -46 39 C-45.66624971 34.35694449 -45.9876201 29.84151978 -46.6875 25.25 C-47.05514977 22.19158018 -47.03417769 21.08734298 -45.875 18.125 C-42.60430353 14.41821066 -40.29569492 13.08784372 -35.3125 12.75 C-32 13 -32 13 -30 14 C-25.29960785 14.64641935 -22.05374171 14.7961604 -18.1875 11.875 C-16.70342239 9.92449799 -15.28756295 7.92054992 -13.9375 5.875 C-10.2662814 0.4273853 -6.6380227 -1.33530824 0 0 Z M-19.5234375 42.4140625 C-23.90749906 47.12286936 -24.66394167 51.87014785 -24.4765625 58.11328125 C-23.53332269 63.82684041 -20.69353475 68.81041691 -16.18359375 72.4765625 C-10.85393939 75.67665734 -6.1487011 76.51239176 0 76 C6.95619416 73.76648311 11.46474729 69.27172717 15.140625 63.078125 C17.00603759 58.56721819 16.70958568 53.41344112 15.34765625 48.78125 C13.07985375 43.72005988 9.85202736 39.74828856 5 37 C-4.84404386 33.54723835 -12.02819659 35.39796941 -19.5234375 42.4140625 Z " fill="#FDFDFE" transform="translate(62,5)"/>
</svg>
