<?xml version="1.0" encoding="UTF-8"?>
<svg version="1.1" xmlns="http://www.w3.org/2000/svg" width="512" height="512">
<path d="M0 0 C1.56241362 -0.00424107 1.56241362 -0.00424107 3.15639114 -0.00856781 C8.68401585 -0.02349349 14.21161498 -0.03276108 19.73925781 -0.03710938 C24.24031799 -0.0414686 28.74118374 -0.05527017 33.2421875 -0.078125 C100.96861325 -0.41519924 175.98658836 3.6527914 228.13671875 52.33203125 C230.27537351 54.3594211 230.27537351 54.3594211 233.2265625 56.578125 C237.78344576 60.65023345 241.42604301 65.38391469 245.1640625 70.203125 C245.74027344 70.92886719 246.31648438 71.65460938 246.91015625 72.40234375 C264.4805203 95.87163099 275.33759498 128.26061198 279.1640625 157.203125 C279.36950684 158.73718994 279.36950684 158.73718994 279.57910156 160.30224609 C282.35035387 181.57021262 283.33344962 202.45512813 283.3671875 223.8828125 C283.37001488 225.10764469 283.37284225 226.33247688 283.37575531 227.5944252 C283.3906792 234.09045876 283.39994873 240.58647055 283.40429688 247.08251953 C283.40803392 252.38075258 283.42248822 257.67886285 283.4453125 262.97705078 C283.72828171 329.97249133 282.561142 405.37669716 232.3515625 456.390625 C193.53306258 494.65935941 139.77324513 506.46405351 87.1640625 511.203125 C86.185513 511.29158691 85.2069635 511.38004883 84.19876099 511.47119141 C73.74102316 512.31653052 63.31842842 512.38507554 52.83203125 512.40625 C51.87106348 512.40907738 50.91009571 512.41190475 49.92000771 512.41481781 C44.81800702 512.42972787 39.71603394 512.43900468 34.61401367 512.44335938 C30.47297196 512.44771234 26.33214232 512.46149165 22.19116211 512.484375 C-41.78836351 512.83078222 -116.30223563 509.69475382 -166.8359375 465.203125 C-167.68671875 464.46191406 -168.5375 463.72070312 -169.4140625 462.95703125 C-171.920676 460.73875519 -174.38473784 458.4823808 -176.8359375 456.203125 C-177.57457031 455.53023438 -178.31320313 454.85734375 -179.07421875 454.1640625 C-215.83339715 419.29834089 -225.16746712 362.36599381 -227.8359375 314.203125 C-227.87830536 313.49697052 -227.92067322 312.79081604 -227.96432495 312.06326294 C-229.04440389 293.76544087 -229.03715913 275.46287579 -229.0234375 257.140625 C-229.02317062 256.34299744 -229.02290375 255.54536987 -229.02262878 254.72357178 C-229.00241457 206.60166604 -229.00241457 206.60166604 -226.8359375 183.203125 C-226.77277344 182.5197406 -226.70960938 181.8363562 -226.64453125 181.13226318 C-222.47287131 136.75853107 -210.79415958 90.85208675 -178.8359375 58.203125 C-178.02382812 57.34074219 -177.21171875 56.47835937 -176.375 55.58984375 C-140.75143046 18.5251913 -87.4421488 5.83939518 -37.87922668 1.47135925 C-35.98435616 1.30434615 -34.09015454 1.1293027 -32.19718933 0.94192505 C-21.47527629 -0.02585402 -10.75745674 0.01994047 0 0 Z " fill="#379DF1" transform="translate(228.8359375,-0.203125)"/>
<path d="M0 0 C4.77153675 2.1574866 7.26293064 4.60399711 9.76953125 9.31640625 C10.69141586 12.08206007 10.88738347 13.69924327 10.8671875 16.546875 C10.86396484 17.34931641 10.86074219 18.15175781 10.85742188 18.97851562 C10.84904297 19.81189453 10.84066406 20.64527344 10.83203125 21.50390625 C10.82751953 22.34888672 10.82300781 23.19386719 10.81835938 24.06445312 C10.80658528 26.1484678 10.78865015 28.23244602 10.76953125 30.31640625 C11.87929321 30.30530319 12.98905518 30.29420013 14.13244629 30.28276062 C24.60775813 30.18125703 35.08296976 30.10637956 45.55866241 30.05734539 C50.94393971 30.03128851 56.32881895 29.99596152 61.71386719 29.93920898 C66.91399531 29.88475034 72.11374134 29.85495632 77.31413269 29.84202003 C79.29483553 29.83280505 81.27551824 29.81481011 83.25605774 29.78775597 C86.03769576 29.75128138 88.81776942 29.74646856 91.59960938 29.7487793 C92.41241364 29.73080292 93.2252179 29.71282654 94.06265259 29.69430542 C100.10274108 29.74834294 104.05578599 31.56589867 108.76953125 35.31640625 C112.27727664 38.99953891 113.05489125 41.86627136 113.26953125 46.81640625 C113.07601818 51.73430727 112.13959036 54.58201642 108.76953125 58.31640625 C104.00730519 62.61402489 100.67238538 63.43260544 94.3515625 63.6328125 C93.09794922 63.67470703 91.84433594 63.71660156 90.55273438 63.75976562 C89.24240234 63.79908203 87.93207031 63.83839844 86.58203125 63.87890625 C85.24673147 63.92211617 83.91144473 63.96573125 82.57617188 64.00976562 C79.30739828 64.11597127 76.03854792 64.21801622 72.76953125 64.31640625 C72.40939941 65.37661987 72.40939941 65.37661987 72.04199219 66.45825195 C59.67889203 102.5909532 44.36687186 138.94239346 20.76953125 169.31640625 C22.06546735 172.16546066 23.43533507 174.23800413 25.640625 176.453125 C26.49442749 177.31260742 26.49442749 177.31260742 27.36547852 178.18945312 C27.97319092 178.78822266 28.58090332 179.38699219 29.20703125 180.00390625 C30.14276978 180.93493164 30.14276978 180.93493164 31.09741211 181.88476562 C35.67611717 186.38347036 40.45361812 190.4318904 45.484375 194.41796875 C49.78072249 197.98724205 53.33577218 201.58323396 54.0078125 207.3671875 C54.18954918 212.90537383 53.51466131 215.9639578 49.76953125 220.31640625 C44.63893083 224.83622091 41.4708991 225.81256393 34.69921875 225.70703125 C21.74944223 223.98039438 8.59651511 206.29977368 -0.23046875 197.31640625 C-4.2837782 198.92388799 -6.94792194 201.81275146 -9.921875 204.8828125 C-10.46722397 205.43573471 -11.01257294 205.98865692 -11.57444763 206.55833435 C-13.89468678 208.9109871 -16.20317125 211.27503604 -18.51196289 213.63891602 C-25.75955115 221.0442636 -33.06305763 227.91798493 -41.23046875 234.31640625 C-42.5093551 235.36372343 -43.78572542 236.41412695 -45.05859375 237.46875 C-75.71331416 262.53078908 -75.71331416 262.53078908 -88.1953125 261.73828125 C-93.71024181 260.59507133 -97.14305325 256.77600641 -100.23046875 252.31640625 C-102.05668664 246.83775259 -102.13802244 241.36826676 -99.79296875 236.06640625 C-96.34929138 232.37075249 -92.48778503 229.99278929 -88.23046875 227.31640625 C-75.33467803 218.70795957 -63.21585314 209.40609839 -51.8984375 198.80078125 C-49.69461576 196.74861342 -47.4594705 194.76859841 -45.16796875 192.81640625 C-37.61066656 186.25307073 -30.58562568 179.04565116 -24.23046875 171.31640625 C-25.55323069 168.51487621 -27.03685805 166.0714554 -28.8828125 163.5859375 C-29.40625244 162.8746167 -29.92969238 162.1632959 -30.46899414 161.43041992 C-31.02965576 160.67092041 -31.59031738 159.9114209 -32.16796875 159.12890625 C-41.08279984 146.89153254 -49.18470445 134.31780862 -56.73046875 121.19140625 C-57.23521729 120.31444092 -57.73996582 119.43747559 -58.26000977 118.53393555 C-62.98361547 110.20452395 -66.78278308 103.18158143 -65.23046875 93.31640625 C-63.08987118 88.45381423 -59.96216846 85.67882236 -55.23046875 83.31640625 C-52.36328125 82.84765625 -52.36328125 82.84765625 -49.35546875 82.81640625 C-48.36804688 82.78546875 -47.380625 82.75453125 -46.36328125 82.72265625 C-41.33635652 83.67539011 -37.81653339 86.01009126 -34.90039062 90.25048828 C-33.65011628 92.50827023 -32.52218942 94.79631621 -31.41796875 97.12890625 C-30.55949209 98.84355978 -29.69611668 100.55576847 -28.828125 102.265625 C-28.3964502 103.11817871 -27.96477539 103.97073242 -27.52001953 104.84912109 C-22.00046642 115.40962919 -15.06029012 125.19481606 -8.07666016 134.82275391 C-7.58987793 135.49741699 -7.1030957 136.17208008 -6.6015625 136.8671875 C-6.1677124 137.46184814 -5.7338623 138.05650879 -5.28686523 138.66918945 C-4.23046875 140.31640625 -4.23046875 140.31640625 -3.23046875 143.31640625 C0.43835962 140.02279896 2.83075038 136.23502028 5.26953125 132.00390625 C5.6967749 131.2675293 6.12401855 130.53115234 6.56420898 129.77246094 C17.54979469 110.62621087 26.72043241 90.96524192 34.90283203 70.48828125 C35.17938126 69.79653809 35.45593048 69.10479492 35.74085999 68.39208984 C36.41721353 66.70024719 37.09339045 65.00833393 37.76953125 63.31640625 C36.99353828 63.32193701 36.21754532 63.32746777 35.41803741 63.33316612 C16.52178652 63.46576902 -2.3743713 63.56500748 -21.27098846 63.62727928 C-30.40934476 63.65819528 -39.54739015 63.7003324 -48.68554688 63.76904297 C-56.6519506 63.82891439 -64.61812914 63.86757181 -72.58475161 63.88093722 C-76.80173406 63.888748 -81.01807237 63.90705704 -85.23484802 63.95078659 C-89.20766678 63.99165065 -93.17957892 64.00404794 -97.15258789 63.99505234 C-98.60702957 63.99669687 -100.06150299 64.00855078 -101.51576233 64.0316391 C-109.16938879 64.14714396 -114.86928359 64.12453708 -120.80762482 58.94065285 C-124.06092837 55.22684622 -125.0889231 51.63749901 -125.60546875 46.81640625 C-125.03651595 41.50618014 -123.70648344 37.71672788 -119.79296875 34.00390625 C-118.94734375 33.44703125 -118.10171875 32.89015625 -117.23046875 32.31640625 C-116.43367706 31.7762236 -116.43367706 31.7762236 -115.62078857 31.22512817 C-111.95911613 29.8330793 -108.28602628 30.05614906 -104.42285156 30.08935547 C-103.53469254 30.08906342 -102.64653351 30.08877136 -101.73146057 30.08847046 C-98.79873857 30.08986268 -95.86627131 30.10541888 -92.93359375 30.12109375 C-90.89906961 30.12482426 -88.86454367 30.12767105 -86.83001709 30.12966919 C-81.47718336 30.13730263 -76.1244583 30.1569487 -70.77166748 30.17907715 C-65.30873077 30.19954176 -59.8457765 30.20867223 -54.3828125 30.21875 C-43.66531686 30.24019481 -32.94790184 30.27432733 -22.23046875 30.31640625 C-22.26188965 29.45474854 -22.26188965 29.45474854 -22.29394531 28.57568359 C-22.37760639 25.94777251 -22.42928335 23.32014235 -22.48046875 20.69140625 C-22.51398438 19.78777344 -22.5475 18.88414063 -22.58203125 17.953125 C-22.66614397 12.19140336 -22.14092982 8.85965102 -18.23046875 4.31640625 C-12.51236736 -0.72096878 -7.48432373 -2.29379449 0 0 Z " fill="#FDFEFE" transform="translate(214.23046875,101.68359375)"/>
<path d="M0 0 C6.20013881 4.32567824 8.83823258 9.81080052 11.515625 16.64453125 C12.03451546 17.92844505 12.03451546 17.92844505 12.56388855 19.23829651 C13.69832045 22.05083062 14.81763671 24.86913741 15.9375 27.6875 C16.73706548 29.67516421 17.53794909 31.66229865 18.34008789 33.64892578 C19.57643421 36.71132233 20.81199992 39.77400676 22.04359436 42.83831787 C25.66248356 51.84098318 29.36189843 60.80871126 33.09103394 69.76617432 C34.83959571 73.9666242 36.5835886 78.16897084 38.328125 82.37109375 C38.67955063 83.21728271 39.03097626 84.06347168 39.39305115 84.93530273 C42.09605402 91.4453201 44.79188273 97.95828528 47.484375 104.47265625 C47.8881134 105.44934769 48.29185181 106.42603912 48.70782471 107.43232727 C50.73218865 112.3311478 52.75374684 117.23110094 54.77050781 122.13305664 C58.13039486 130.29535229 61.49448007 138.45427824 64.95622253 146.57402039 C66.29371904 149.71270362 67.62033797 152.85592887 68.94619751 155.99954224 C69.55571678 157.43537218 70.17091534 158.86880719 70.79232788 160.29953003 C77.65425094 176.10163434 77.65425094 176.10163434 74.83984375 184.36328125 C71.83819635 188.87057815 68.96104929 192.18746423 63.6875 193.875 C58.44933297 194.7666029 53.77964343 194.34293931 49.34448242 191.27197266 C42.97675476 185.90345377 40.23872691 176.52276732 37.18334961 168.99121094 C36.36695238 166.98017626 35.53884316 164.97426238 34.70898438 162.96875 C30.6875 153.17222746 30.6875 153.17222746 30.6875 150.875 C5.2775 151.205 -20.1325 151.535 -46.3125 151.875 C-50.9325 163.095 -55.5525 174.315 -60.3125 185.875 C-64.26525454 190.81594318 -65.56860343 192.0252706 -71.3125 193.875 C-76.77504307 194.46027247 -80.51381665 193.54093519 -85.3125 190.875 C-89.87996968 186.67245702 -91.18536515 183.27191778 -91.50561523 177.23413086 C-91.48545645 172.66027668 -90.21452853 169.15880698 -88.41015625 165.00390625 C-88.10163727 164.26200043 -87.79311829 163.5200946 -87.47525024 162.75570679 C-86.45490264 160.31059186 -85.41496312 157.8743288 -84.375 155.4375 C-83.644838 153.69728365 -82.91610608 151.95646665 -82.1887207 150.21508789 C-80.66751026 146.57828593 -79.13893367 142.94471534 -77.60449219 139.31347656 C-75.4258353 134.15267835 -73.27386483 128.9811844 -71.1328125 123.8046875 C-70.79299347 122.98315689 -70.45317444 122.16162628 -70.10305786 121.31520081 C-69.41503652 119.65154431 -68.72709922 117.98785305 -68.03924561 116.3241272 C-66.27469042 112.05958687 -64.50412281 107.79754361 -62.734375 103.53515625 C-58.46577249 93.25040618 -54.20866233 82.96092604 -49.95678711 72.66925049 C-48.75839015 69.77029599 -47.55806168 66.87214731 -46.35742188 63.97412109 C-42.82627569 55.44293425 -39.31216976 46.90642431 -35.88230896 38.33392334 C-34.43635959 34.72002793 -32.98157787 31.10971206 -31.52688599 27.49932861 C-30.85132366 25.81396634 -30.18066875 24.12662724 -29.51535034 22.43719482 C-28.59910476 20.11065685 -27.66650237 17.79128939 -26.73046875 15.47265625 C-26.34251129 14.46648506 -26.34251129 14.46648506 -25.94671631 13.43998718 C-21.14730161 1.71236109 -12.68962444 -4.30968377 0 0 Z " fill="#FDFEFE" transform="translate(347.3125,217.125)"/>
<path d="M0 0 C2.18405968 2.73131278 3.70651566 5.30419786 5.03710938 8.53393555 C5.40759399 9.42553879 5.77807861 10.31714203 6.15979004 11.23576355 C6.55049683 12.19307877 6.94120361 13.15039398 7.34375 14.13671875 C7.95929749 15.62773857 7.95929749 15.62773857 8.58728027 17.14888 C9.4539894 19.25169212 10.31789623 21.35566113 11.17919922 23.46069336 C12.48908537 26.66083482 13.80822999 29.85703305 15.12890625 33.05273438 C15.97190823 35.10133459 16.8143734 37.1501558 17.65625 39.19921875 C18.04695679 40.14641281 18.43766357 41.09360687 18.84020996 42.06950378 C19.21069458 42.97686783 19.5811792 43.88423187 19.96289062 44.8190918 C20.28471313 45.60422653 20.60653564 46.38936127 20.93811035 47.19828796 C22.41260307 51.08862065 23.68437022 55.05311066 25 59 C8.83 59 -7.34 59 -24 59 C-22.01376412 53.04129237 -19.97449103 47.24480596 -17.6015625 41.44921875 C-17.28472504 40.6691597 -16.96788757 39.88910065 -16.64144897 39.08540344 C-15.63859179 36.61835751 -14.63181358 34.15293353 -13.625 31.6875 C-12.95808668 30.04762633 -12.29141825 28.40765304 -11.625 26.76757812 C-10.04285626 22.87709361 -8.45481019 18.98907035 -6.86193848 15.10296631 C-6.30611422 13.7468606 -5.75096854 12.39047647 -5.19665527 11.03375244 C-4.49574914 9.319586 -3.79099486 7.60699442 -3.0859375 5.89453125 C-2.70228027 4.9610083 -2.31862305 4.02748535 -1.92333984 3.06567383 C-1 1 -1 1 0 0 Z " fill="#399EF1" transform="translate(339,276)"/>
</svg>
